<?xml version="1.0" encoding="UTF-8" standalone="no"?>
<!DOCTYPE svg PUBLIC "-//W3C//DTD SVG 1.1//EN"
 "http://www.w3.org/Graphics/SVG/1.1/DTD/svg11.dtd">
<!-- Generated by graphviz version 2.43.0 (0)
 -->
<!-- Title: RepositoryArchitecture Pages: 1 -->
<svg width="2200pt" height="625pt"
 viewBox="0.00 0.00 2199.70 625.20" xmlns="http://www.w3.org/2000/svg" xmlns:xlink="http://www.w3.org/1999/xlink">
<g id="graph0" class="graph" transform="scale(1 1) rotate(0) translate(21.6 603.6)">
<title>RepositoryArchitecture</title>
<polygon fill="white" stroke="transparent" points="-21.6,21.6 -21.6,-603.6 2178.1,-603.6 2178.1,21.6 -21.6,21.6"/>
<text text-anchor="middle" x="1078.25" y="-562" font-family="Times,serif" font-size="20.00">4&#45;TERMX — Arquitectura / relaciones</text>
<!-- root -->
<g id="node1" class="node">
<title>root</title>
<path fill="#eeeeee" stroke="#555555" d="M710,-552C710,-552 652,-552 652,-552 646,-552 640,-546 640,-540 640,-540 640,-528 640,-528 640,-522 646,-516 652,-516 652,-516 710,-516 710,-516 716,-516 722,-522 722,-528 722,-528 722,-540 722,-540 722,-546 716,-552 710,-552"/>
<text text-anchor="middle" x="681" y="-530.5" font-family="Arial" font-size="15.00">4&#45;TERMX</text>
</g>
<!-- dir_n__github -->
<g id="node2" class="node">
<title>dir_n__github</title>
<path fill="#eeeeee" stroke="#555555" d="M1347,-393C1347,-393 1317,-393 1317,-393 1311,-393 1305,-387 1305,-381 1305,-381 1305,-369 1305,-369 1305,-363 1311,-357 1317,-357 1317,-357 1347,-357 1347,-357 1353,-357 1359,-363 1359,-369 1359,-369 1359,-381 1359,-381 1359,-387 1353,-393 1347,-393"/>
<text text-anchor="middle" x="1332" y="-372.5" font-family="Arial" font-size="10.00">.github</text>
</g>
<!-- root&#45;&gt;dir_n__github -->
<g id="edge1" class="edge">
<title>root&#45;&gt;dir_n__github</title>
<path fill="none" stroke="#777777" d="M722.22,-540C865.32,-540 1332,-540 1332,-540 1332,-540 1332,-399.79 1332,-399.79"/>
<polygon fill="#777777" stroke="#777777" points="1334.28,-399.79 1332,-393.29 1329.73,-399.79 1334.28,-399.79"/>
</g>
<!-- dir_n__termux -->
<g id="node3" class="node">
<title>dir_n__termux</title>
<path fill="#eeeeee" stroke="#555555" d="M42,-453C42,-453 12,-453 12,-453 6,-453 0,-447 0,-441 0,-441 0,-429 0,-429 0,-423 6,-417 12,-417 12,-417 42,-417 42,-417 48,-417 54,-423 54,-429 54,-429 54,-441 54,-441 54,-447 48,-453 42,-453"/>
<text text-anchor="middle" x="27" y="-432.5" font-family="Arial" font-size="10.00">.termux</text>
</g>
<!-- root&#45;&gt;dir_n__termux -->
<g id="edge2" class="edge">
<title>root&#45;&gt;dir_n__termux</title>
<path fill="none" stroke="#777777" d="M639.59,-548C495.83,-548 27,-548 27,-548 27,-548 27,-459.66 27,-459.66"/>
<polygon fill="#777777" stroke="#777777" points="29.28,-459.66 27,-453.16 24.73,-459.66 29.28,-459.66"/>
</g>
<!-- dir_n_docs -->
<g id="node4" class="node">
<title>dir_n_docs</title>
<path fill="#eeeeee" stroke="#555555" d="M128,-453C128,-453 98,-453 98,-453 92,-453 86,-447 86,-441 86,-441 86,-429 86,-429 86,-423 92,-417 98,-417 98,-417 128,-417 128,-417 134,-417 140,-423 140,-429 140,-429 140,-441 140,-441 140,-447 134,-453 128,-453"/>
<text text-anchor="middle" x="113" y="-432.5" font-family="Arial" font-size="10.00">docs</text>
</g>
<!-- root&#45;&gt;dir_n_docs -->
<g id="edge3" class="edge">
<title>root&#45;&gt;dir_n_docs</title>
<path fill="none" stroke="#777777" d="M639.69,-544C508.99,-544 113,-544 113,-544 113,-544 113,-459.99 113,-459.99"/>
<polygon fill="#777777" stroke="#777777" points="115.28,-459.99 113,-453.49 110.73,-459.99 115.28,-459.99"/>
</g>
<!-- dir_n_infrastructure -->
<g id="node5" class="node">
<title>dir_n_infrastructure</title>
<path fill="#eeeeee" stroke="#555555" d="M234,-453C234,-453 184,-453 184,-453 178,-453 172,-447 172,-441 172,-441 172,-429 172,-429 172,-423 178,-417 184,-417 184,-417 234,-417 234,-417 240,-417 246,-423 246,-429 246,-429 246,-441 246,-441 246,-447 240,-453 234,-453"/>
<text text-anchor="middle" x="209" y="-432.5" font-family="Arial" font-size="10.00">infrastructure</text>
</g>
<!-- root&#45;&gt;dir_n_infrastructure -->
<g id="edge4" class="edge">
<title>root&#45;&gt;dir_n_infrastructure</title>
<path fill="none" stroke="#777777" d="M639.94,-540C525.1,-540 209,-540 209,-540 209,-540 209,-459.79 209,-459.79"/>
<polygon fill="#777777" stroke="#777777" points="211.28,-459.79 209,-453.29 206.73,-459.79 211.28,-459.79"/>
</g>
<!-- dir_n_scripts -->
<g id="node6" class="node">
<title>dir_n_scripts</title>
<path fill="#eeeeee" stroke="#555555" d="M320,-453C320,-453 290,-453 290,-453 284,-453 278,-447 278,-441 278,-441 278,-429 278,-429 278,-423 284,-417 290,-417 290,-417 320,-417 320,-417 326,-417 332,-423 332,-429 332,-429 332,-441 332,-441 332,-447 326,-453 320,-453"/>
<text text-anchor="middle" x="305" y="-432.5" font-family="Arial" font-size="10.00">scripts</text>
</g>
<!-- root&#45;&gt;dir_n_scripts -->
<g id="edge5" class="edge">
<title>root&#45;&gt;dir_n_scripts</title>
<path fill="none" stroke="#777777" d="M639.69,-536C542.01,-536 305,-536 305,-536 305,-536 305,-459.56 305,-459.56"/>
<polygon fill="#777777" stroke="#777777" points="307.28,-459.56 305,-453.06 302.73,-459.56 307.28,-459.56"/>
</g>
<!-- file_n__gitconfig -->
<g id="node7" class="node">
<title>file_n__gitconfig</title>
<polygon fill="white" stroke="#555555" points="414,-453 364,-453 364,-417 420,-417 420,-447 414,-453"/>
<polyline fill="none" stroke="#555555" points="414,-453 414,-447 "/>
<polyline fill="none" stroke="#555555" points="420,-447 414,-447 "/>
<text text-anchor="middle" x="392" y="-432.5" font-family="Arial" font-size="10.00">.gitconfig</text>
</g>
<!-- root&#45;&gt;file_n__gitconfig -->
<g id="edge6" class="edge">
<title>root&#45;&gt;file_n__gitconfig</title>
<path fill="none" stroke="#777777" d="M639.9,-532C560.11,-532 392,-532 392,-532 392,-532 392,-459.74 392,-459.74"/>
<polygon fill="#777777" stroke="#777777" points="394.28,-459.74 392,-453.24 389.73,-459.74 394.28,-459.74"/>
</g>
<!-- file_n__gitignore -->
<g id="node8" class="node">
<title>file_n__gitignore</title>
<polygon fill="white" stroke="#555555" points="502,-453 452,-453 452,-417 508,-417 508,-447 502,-453"/>
<polyline fill="none" stroke="#555555" points="502,-453 502,-447 "/>
<polyline fill="none" stroke="#555555" points="508,-447 502,-447 "/>
<text text-anchor="middle" x="480" y="-432.5" font-family="Arial" font-size="10.00">.gitignore</text>
</g>
<!-- root&#45;&gt;file_n__gitignore -->
<g id="edge7" class="edge">
<title>root&#45;&gt;file_n__gitignore</title>
<path fill="none" stroke="#777777" d="M639.84,-528C581.03,-528 480,-528 480,-528 480,-528 480,-459.87 480,-459.87"/>
<polygon fill="#777777" stroke="#777777" points="482.28,-459.87 480,-453.37 477.73,-459.87 482.28,-459.87"/>
</g>
<!-- file_n__zshrc -->
<g id="node9" class="node">
<title>file_n__zshrc</title>
<polygon fill="white" stroke="#555555" points="588,-453 540,-453 540,-417 594,-417 594,-447 588,-453"/>
<polyline fill="none" stroke="#555555" points="588,-453 588,-447 "/>
<polyline fill="none" stroke="#555555" points="594,-447 588,-447 "/>
<text text-anchor="middle" x="567" y="-432.5" font-family="Arial" font-size="10.00">.zshrc</text>
</g>
<!-- root&#45;&gt;file_n__zshrc -->
<g id="edge8" class="edge">
<title>root&#45;&gt;file_n__zshrc</title>
<path fill="none" stroke="#777777" d="M639.84,-520C607.19,-520 567,-520 567,-520 567,-520 567,-459.53 567,-459.53"/>
<polygon fill="#777777" stroke="#777777" points="569.28,-459.53 567,-453.03 564.73,-459.53 569.28,-459.53"/>
</g>
<!-- file_n_CONTRIBUTING_md -->
<g id="node10" class="node">
<title>file_n_CONTRIBUTING_md</title>
<polygon fill="white" stroke="#555555" points="730,-453 626,-453 626,-417 736,-417 736,-447 730,-453"/>
<polyline fill="none" stroke="#555555" points="730,-453 730,-447 "/>
<polyline fill="none" stroke="#555555" points="736,-447 730,-447 "/>
<text text-anchor="middle" x="681" y="-432.5" font-family="Arial" font-size="10.00">CONTRIBUTING.md</text>
</g>
<!-- root&#45;&gt;file_n_CONTRIBUTING_md -->
<g id="edge9" class="edge">
<title>root&#45;&gt;file_n_CONTRIBUTING_md</title>
<path fill="none" stroke="#777777" d="M681,-515.84C681,-515.84 681,-459.54 681,-459.54"/>
<polygon fill="#777777" stroke="#777777" points="683.28,-459.54 681,-453.04 678.73,-459.54 683.28,-459.54"/>
</g>
<!-- file_n_README_md -->
<g id="node11" class="node">
<title>file_n_README_md</title>
<polygon fill="white" stroke="#555555" points="839.5,-453 768.5,-453 768.5,-417 845.5,-417 845.5,-447 839.5,-453"/>
<polyline fill="none" stroke="#555555" points="839.5,-453 839.5,-447 "/>
<polyline fill="none" stroke="#555555" points="845.5,-447 839.5,-447 "/>
<text text-anchor="middle" x="807" y="-432.5" font-family="Arial" font-size="10.00">README.md</text>
</g>
<!-- root&#45;&gt;file_n_README_md -->
<g id="edge10" class="edge">
<title>root&#45;&gt;file_n_README_md</title>
<path fill="none" stroke="#777777" d="M722.26,-520C759,-520 807,-520 807,-520 807,-520 807,-459.53 807,-459.53"/>
<polygon fill="#777777" stroke="#777777" points="809.28,-459.53 807,-453.03 804.73,-459.53 809.28,-459.53"/>
</g>
<!-- file_n_SECURITY_md -->
<g id="node12" class="node">
<title>file_n_SECURITY_md</title>
<polygon fill="white" stroke="#555555" points="954.5,-453 877.5,-453 877.5,-417 960.5,-417 960.5,-447 954.5,-453"/>
<polyline fill="none" stroke="#555555" points="954.5,-453 954.5,-447 "/>
<polyline fill="none" stroke="#555555" points="960.5,-447 954.5,-447 "/>
<text text-anchor="middle" x="919" y="-432.5" font-family="Arial" font-size="10.00">SECURITY.md</text>
</g>
<!-- root&#45;&gt;file_n_SECURITY_md -->
<g id="edge11" class="edge">
<title>root&#45;&gt;file_n_SECURITY_md</title>
<path fill="none" stroke="#777777" d="M722.18,-524C790.3,-524 919,-524 919,-524 919,-524 919,-459.51 919,-459.51"/>
<polygon fill="#777777" stroke="#777777" points="921.28,-459.51 919,-453.01 916.73,-459.51 921.28,-459.51"/>
</g>
<!-- file_n_sync_repo_sh -->
<g id="node13" class="node">
<title>file_n_sync_repo_sh</title>
<polygon fill="white" stroke="#555555" points="1059.5,-453 992.5,-453 992.5,-417 1065.5,-417 1065.5,-447 1059.5,-453"/>
<polyline fill="none" stroke="#555555" points="1059.5,-453 1059.5,-447 "/>
<polyline fill="none" stroke="#555555" points="1065.5,-447 1059.5,-447 "/>
<text text-anchor="middle" x="1029" y="-432.5" font-family="Arial" font-size="10.00">sync&#45;repo.sh</text>
</g>
<!-- root&#45;&gt;file_n_sync_repo_sh -->
<g id="edge12" class="edge">
<title>root&#45;&gt;file_n_sync_repo_sh</title>
<path fill="none" stroke="#777777" d="M722.29,-528C814.47,-528 1029,-528 1029,-528 1029,-528 1029,-459.87 1029,-459.87"/>
<polygon fill="#777777" stroke="#777777" points="1031.28,-459.87 1029,-453.37 1026.73,-459.87 1031.28,-459.87"/>
</g>
<!-- file_n_update_readme_tree_py -->
<g id="node14" class="node">
<title>file_n_update_readme_tree_py</title>
<polygon fill="white" stroke="#555555" points="1210.5,-453 1097.5,-453 1097.5,-417 1216.5,-417 1216.5,-447 1210.5,-453"/>
<polyline fill="none" stroke="#555555" points="1210.5,-453 1210.5,-447 "/>
<polyline fill="none" stroke="#555555" points="1216.5,-447 1210.5,-447 "/>
<text text-anchor="middle" x="1157" y="-432.5" font-family="Arial" font-size="10.00">update_readme_tree.py</text>
</g>
<!-- root&#45;&gt;file_n_update_readme_tree_py -->
<g id="edge13" class="edge">
<title>root&#45;&gt;file_n_update_readme_tree_py</title>
<path fill="none" stroke="#777777" d="M722.41,-532C838.22,-532 1157,-532 1157,-532 1157,-532 1157,-459.74 1157,-459.74"/>
<polygon fill="#777777" stroke="#777777" points="1159.28,-459.74 1157,-453.24 1154.73,-459.74 1159.28,-459.74"/>
</g>
<!-- generator -->
<g id="node16" class="node">
<title>generator</title>
<path fill="#f3f3f3" stroke="#555555" d="M1358.5,-135C1358.5,-135 1263.5,-135 1263.5,-135 1257.5,-135 1251.5,-129 1251.5,-123 1251.5,-123 1251.5,-111 1251.5,-111 1251.5,-105 1257.5,-99 1263.5,-99 1263.5,-99 1358.5,-99 1358.5,-99 1364.5,-99 1370.5,-105 1370.5,-111 1370.5,-111 1370.5,-123 1370.5,-123 1370.5,-129 1364.5,-135 1358.5,-135"/>
<text text-anchor="middle" x="1311" y="-120" font-family="Arial" font-size="10.00">update_readme_tree.py</text>
<text text-anchor="middle" x="1311" y="-109" font-family="Arial" font-size="10.00">descubre + genera</text>
</g>
<!-- root&#45;&gt;generator -->
<g id="edge15" class="edge">
<title>root&#45;&gt;generator</title>
<path fill="none" stroke="#777777" d="M722.05,-536C856.99,-536 1278.25,-536 1278.25,-536 1278.25,-536 1278.25,-141.5 1278.25,-141.5"/>
<polygon fill="#777777" stroke="#777777" points="1280.53,-141.5 1278.25,-135 1275.98,-141.5 1280.53,-141.5"/>
</g>
<!-- readme -->
<g id="node17" class="node">
<title>readme</title>
<polygon fill="white" stroke="#555555" points="580.5,-36 509.5,-36 509.5,0 586.5,0 586.5,-30 580.5,-36"/>
<polyline fill="none" stroke="#555555" points="580.5,-36 580.5,-30 "/>
<polyline fill="none" stroke="#555555" points="586.5,-30 580.5,-30 "/>
<text text-anchor="middle" x="548" y="-15.5" font-family="Arial" font-size="10.00">README.md</text>
</g>
<!-- root&#45;&gt;readme -->
<g id="edge16" class="edge">
<title>root&#45;&gt;readme</title>
<path fill="none" stroke="#777777" d="M639.95,-524C593.65,-524 524.75,-524 524.75,-524 524.75,-524 524.75,-42.51 524.75,-42.51"/>
<polygon fill="#777777" stroke="#777777" points="527.03,-42.51 524.75,-36.01 522.48,-42.51 527.03,-42.51"/>
</g>
<!-- docs -->
<g id="node18" class="node">
<title>docs</title>
<path fill="#eeeeee" stroke="#555555" d="M1839,-453C1839,-453 1809,-453 1809,-453 1803,-453 1797,-447 1797,-441 1797,-441 1797,-429 1797,-429 1797,-423 1803,-417 1809,-417 1809,-417 1839,-417 1839,-417 1845,-417 1851,-423 1851,-429 1851,-429 1851,-441 1851,-441 1851,-447 1845,-453 1839,-453"/>
<text text-anchor="middle" x="1824" y="-432.5" font-family="Arial" font-size="10.00">docs</text>
</g>
<!-- root&#45;&gt;docs -->
<g id="edge17" class="edge">
<title>root&#45;&gt;docs</title>
<path fill="none" stroke="#777777" d="M722.02,-548C926.28,-548 1824,-548 1824,-548 1824,-548 1824,-459.66 1824,-459.66"/>
<polygon fill="#777777" stroke="#777777" points="1826.28,-459.66 1824,-453.16 1821.73,-459.66 1826.28,-459.66"/>
</g>
<!-- github -->
<g id="node25" class="node">
<title>github</title>
<path fill="#eeeeee" stroke="#555555" d="M1430,-453C1430,-453 1400,-453 1400,-453 1394,-453 1388,-447 1388,-441 1388,-441 1388,-429 1388,-429 1388,-423 1394,-417 1400,-417 1400,-417 1430,-417 1430,-417 1436,-417 1442,-423 1442,-429 1442,-429 1442,-441 1442,-441 1442,-447 1436,-453 1430,-453"/>
<text text-anchor="middle" x="1415" y="-432.5" font-family="Arial" font-size="10.00">GitHub</text>
</g>
<!-- root&#45;&gt;github -->
<g id="edge27" class="edge">
<title>root&#45;&gt;github</title>
<path fill="none" stroke="#777777" stroke-dasharray="5,2" d="M722.04,-544C876.61,-544 1415,-544 1415,-544 1415,-544 1415,-459.99 1415,-459.99"/>
<polygon fill="#777777" stroke="#777777" points="1417.28,-459.99 1415,-453.49 1412.73,-459.99 1417.28,-459.99"/>
<text text-anchor="middle" x="1436.5" y="-480.8" font-family="Times,serif" font-size="14.00">repositorio</text>
</g>
<!-- workflow -->
<g id="node15" class="node">
<title>workflow</title>
<path fill="#f3f3f3" stroke="#555555" d="M1387,-234C1387,-234 1327,-234 1327,-234 1321,-234 1315,-228 1315,-222 1315,-222 1315,-210 1315,-210 1315,-204 1321,-198 1327,-198 1327,-198 1387,-198 1387,-198 1393,-198 1399,-204 1399,-210 1399,-210 1399,-222 1399,-222 1399,-228 1393,-234 1387,-234"/>
<text text-anchor="middle" x="1357" y="-219" font-family="Arial" font-size="10.00">update&#45;tree.yml</text>
<text text-anchor="middle" x="1357" y="-208" font-family="Arial" font-size="10.00">GitHub Actions</text>
</g>
<!-- dir_n__github&#45;&gt;workflow -->
<g id="edge14" class="edge">
<title>dir_n__github&#45;&gt;workflow</title>
<path fill="none" stroke="#777777" d="M1337,-356.76C1337,-356.76 1337,-240.53 1337,-240.53"/>
<polygon fill="#777777" stroke="#777777" points="1339.28,-240.53 1337,-234.03 1334.73,-240.53 1339.28,-240.53"/>
</g>
<!-- workflow&#45;&gt;generator -->
<g id="edge24" class="edge">
<title>workflow&#45;&gt;generator</title>
<path fill="none" stroke="#777777" d="M1342.75,-197.84C1342.75,-197.84 1342.75,-141.54 1342.75,-141.54"/>
<polygon fill="#777777" stroke="#777777" points="1345.03,-141.54 1342.75,-135.04 1340.48,-141.54 1345.03,-141.54"/>
<text text-anchor="middle" x="1365" y="-162.8" font-family="Times,serif" font-size="14.00">ejecuta</text>
</g>
<!-- generator&#45;&gt;readme -->
<g id="edge25" class="edge">
<title>generator&#45;&gt;readme</title>
<path fill="none" stroke="#777777" d="M1251.39,-117C1074.24,-117 563.25,-117 563.25,-117 563.25,-117 563.25,-42.66 563.25,-42.66"/>
<polygon fill="#777777" stroke="#777777" points="565.53,-42.66 563.25,-36.16 560.98,-42.66 565.53,-42.66"/>
<text text-anchor="middle" x="1138" y="-63.8" font-family="Times,serif" font-size="14.00">actualiza</text>
</g>
<!-- doc_n_docs_repository_map_md -->
<g id="node23" class="node">
<title>doc_n_docs_repository_map_md</title>
<polygon fill="white" stroke="#555555" points="1903,-36 1811,-36 1811,0 1909,0 1909,-30 1903,-36"/>
<polyline fill="none" stroke="#555555" points="1903,-36 1903,-30 "/>
<polyline fill="none" stroke="#555555" points="1909,-30 1903,-30 "/>
<text text-anchor="middle" x="1860" y="-15.5" font-family="Arial" font-size="10.00">repository&#45;map.md</text>
</g>
<!-- generator&#45;&gt;doc_n_docs_repository_map_md -->
<g id="edge26" class="edge">
<title>generator&#45;&gt;doc_n_docs_repository_map_md</title>
<path fill="none" stroke="#777777" d="M1370.59,-117C1509.67,-117 1844,-117 1844,-117 1844,-117 1844,-42.66 1844,-42.66"/>
<polygon fill="#777777" stroke="#777777" points="1846.28,-42.66 1844,-36.16 1841.73,-42.66 1846.28,-42.66"/>
<text text-anchor="middle" x="1540" y="-63.8" font-family="Times,serif" font-size="14.00">genera</text>
</g>
<!-- doc_n_docs_conocimiento_4_termx_md -->
<g id="node19" class="node">
<title>doc_n_docs_conocimiento_4_termx_md</title>
<polygon fill="white" stroke="#555555" points="1732.5,-333 1611.5,-333 1611.5,-297 1738.5,-297 1738.5,-327 1732.5,-333"/>
<polyline fill="none" stroke="#555555" points="1732.5,-333 1732.5,-327 "/>
<polyline fill="none" stroke="#555555" points="1738.5,-327 1732.5,-327 "/>
<text text-anchor="middle" x="1675" y="-312.5" font-family="Arial" font-size="10.00">conocimiento&#45;4&#45;termx.md</text>
</g>
<!-- docs&#45;&gt;doc_n_docs_conocimiento_4_termx_md -->
<g id="edge18" class="edge">
<title>docs&#45;&gt;doc_n_docs_conocimiento_4_termx_md</title>
<path fill="none" stroke="#777777" d="M1796.67,-429C1753.66,-429 1675,-429 1675,-429 1675,-429 1675,-339.56 1675,-339.56"/>
<polygon fill="#777777" stroke="#777777" points="1677.28,-339.56 1675,-333.06 1672.73,-339.56 1677.28,-339.56"/>
</g>
<!-- doc_n_docs_design_principles_md -->
<g id="node20" class="node">
<title>doc_n_docs_design_principles_md</title>
<polygon fill="white" stroke="#555555" points="1871,-333 1771,-333 1771,-297 1877,-297 1877,-327 1871,-333"/>
<polyline fill="none" stroke="#555555" points="1871,-333 1871,-327 "/>
<polyline fill="none" stroke="#555555" points="1877,-327 1871,-327 "/>
<text text-anchor="middle" x="1824" y="-312.5" font-family="Arial" font-size="10.00">design&#45;principles.md</text>
</g>
<!-- docs&#45;&gt;doc_n_docs_design_principles_md -->
<g id="edge19" class="edge">
<title>docs&#45;&gt;doc_n_docs_design_principles_md</title>
<path fill="none" stroke="#777777" d="M1824,-416.77C1824,-416.77 1824,-339.5 1824,-339.5"/>
<polygon fill="#777777" stroke="#777777" points="1826.28,-339.5 1824,-333 1821.73,-339.5 1826.28,-339.5"/>
</g>
<!-- doc_n_docs_infrastructure_md -->
<g id="node21" class="node">
<title>doc_n_docs_infrastructure_md</title>
<polygon fill="white" stroke="#555555" points="1993,-333 1909,-333 1909,-297 1999,-297 1999,-327 1993,-333"/>
<polyline fill="none" stroke="#555555" points="1993,-333 1993,-327 "/>
<polyline fill="none" stroke="#555555" points="1999,-327 1993,-327 "/>
<text text-anchor="middle" x="1954" y="-312.5" font-family="Arial" font-size="10.00">infrastructure.md</text>
</g>
<!-- docs&#45;&gt;doc_n_docs_infrastructure_md -->
<g id="edge20" class="edge">
<title>docs&#45;&gt;doc_n_docs_infrastructure_md</title>
<path fill="none" stroke="#777777" d="M1851.25,-435C1889.37,-435 1954,-435 1954,-435 1954,-435 1954,-339.73 1954,-339.73"/>
<polygon fill="#777777" stroke="#777777" points="1956.28,-339.73 1954,-333.23 1951.73,-339.73 1956.28,-339.73"/>
</g>
<!-- doc_n_docs_pendientes_evolucion_md -->
<g id="node22" class="node">
<title>doc_n_docs_pendientes_evolucion_md</title>
<polygon fill="white" stroke="#555555" points="2150.5,-333 2031.5,-333 2031.5,-297 2156.5,-297 2156.5,-327 2150.5,-333"/>
<polyline fill="none" stroke="#555555" points="2150.5,-333 2150.5,-327 "/>
<polyline fill="none" stroke="#555555" points="2156.5,-327 2150.5,-327 "/>
<text text-anchor="middle" x="2094" y="-312.5" font-family="Arial" font-size="10.00">pendientes&#45;evolucion.md</text>
</g>
<!-- docs&#45;&gt;doc_n_docs_pendientes_evolucion_md -->
<g id="edge21" class="edge">
<title>docs&#45;&gt;doc_n_docs_pendientes_evolucion_md</title>
<path fill="none" stroke="#777777" d="M1851.12,-444C1919.59,-444 2094,-444 2094,-444 2094,-444 2094,-339.71 2094,-339.71"/>
<polygon fill="#777777" stroke="#777777" points="2096.28,-339.71 2094,-333.21 2091.73,-339.71 2096.28,-339.71"/>
</g>
<!-- docs&#45;&gt;doc_n_docs_repository_map_md -->
<g id="edge22" class="edge">
<title>docs&#45;&gt;doc_n_docs_repository_map_md</title>
<path fill="none" stroke="#777777" d="M1851.27,-426C1870.56,-426 1893,-426 1893,-426 1893,-426 1893,-42.56 1893,-42.56"/>
<polygon fill="#777777" stroke="#777777" points="1895.28,-42.56 1893,-36.06 1890.73,-42.56 1895.28,-42.56"/>
</g>
<!-- doc_n_docs_svg2canvas_py -->
<g id="node24" class="node">
<title>doc_n_docs_svg2canvas_py</title>
<polygon fill="white" stroke="#555555" points="1573.5,-333 1496.5,-333 1496.5,-297 1579.5,-297 1579.5,-327 1573.5,-333"/>
<polyline fill="none" stroke="#555555" points="1573.5,-333 1573.5,-327 "/>
<polyline fill="none" stroke="#555555" points="1579.5,-327 1573.5,-327 "/>
<text text-anchor="middle" x="1538" y="-312.5" font-family="Arial" font-size="10.00">svg2canvas.py</text>
</g>
<!-- docs&#45;&gt;doc_n_docs_svg2canvas_py -->
<g id="edge23" class="edge">
<title>docs&#45;&gt;doc_n_docs_svg2canvas_py</title>
<path fill="none" stroke="#777777" d="M1796.84,-441C1725.45,-441 1538,-441 1538,-441 1538,-441 1538,-339.55 1538,-339.55"/>
<polygon fill="#777777" stroke="#777777" points="1540.28,-339.55 1538,-333.05 1535.73,-339.55 1540.28,-339.55"/>
</g>
<!-- actions -->
<g id="node26" class="node">
<title>actions</title>
<path fill="#eeeeee" stroke="#555555" d="M1452.5,-333C1452.5,-333 1393.5,-333 1393.5,-333 1387.5,-333 1381.5,-327 1381.5,-321 1381.5,-321 1381.5,-309 1381.5,-309 1381.5,-303 1387.5,-297 1393.5,-297 1393.5,-297 1452.5,-297 1452.5,-297 1458.5,-297 1464.5,-303 1464.5,-309 1464.5,-309 1464.5,-321 1464.5,-321 1464.5,-327 1458.5,-333 1452.5,-333"/>
<text text-anchor="middle" x="1423" y="-312.5" font-family="Arial" font-size="10.00">GitHub Actions</text>
</g>
<!-- github&#45;&gt;actions -->
<g id="edge28" class="edge">
<title>github&#45;&gt;actions</title>
<path fill="none" stroke="#777777" stroke-dasharray="5,2" d="M1415,-416.77C1415,-416.77 1415,-339.5 1415,-339.5"/>
<polygon fill="#777777" stroke="#777777" points="1417.28,-339.5 1415,-333 1412.73,-339.5 1417.28,-339.5"/>
</g>
<!-- actions&#45;&gt;workflow -->
<g id="edge29" class="edge">
<title>actions&#45;&gt;workflow</title>
<path fill="none" stroke="#777777" stroke-dasharray="5,2" d="M1390.25,-296.84C1390.25,-296.84 1390.25,-240.54 1390.25,-240.54"/>
<polygon fill="#777777" stroke="#777777" points="1392.53,-240.54 1390.25,-234.04 1387.98,-240.54 1392.53,-240.54"/>
<text text-anchor="middle" x="1437.5" y="-261.8" font-family="Times,serif" font-size="14.00">workflow</text>
</g>
</g>
</svg>
