<?xml version="1.0" encoding="UTF-8" standalone="no"?>
<!DOCTYPE svg PUBLIC "-//W3C//DTD SVG 1.1//EN"
 "http://www.w3.org/Graphics/SVG/1.1/DTD/svg11.dtd">
<!-- Generated by graphviz version 2.43.0 (0)
 -->
<!-- Title: RepositoryStructure Pages: 1 -->
<svg width="832pt" height="330pt"
 viewBox="0.00 0.00 831.50 330.00" xmlns="http://www.w3.org/2000/svg" xmlns:xlink="http://www.w3.org/1999/xlink">
<g id="graph0" class="graph" transform="scale(1 1) rotate(0) translate(18 312)">
<title>RepositoryStructure</title>
<polygon fill="white" stroke="transparent" points="-18,18 -18,-312 813.5,-312 813.5,18 -18,18"/>
<text text-anchor="middle" x="397.75" y="-274" font-family="Times,serif" font-size="20.00">4&#45;TERMX — Estructura real</text>
<!-- root -->
<g id="node1" class="node">
<title>root</title>
<polygon fill="#555555" stroke="#555555" stroke-width="2" points="405,-264 323,-264 323,-228 405,-228 405,-264"/>
<text text-anchor="middle" x="364" y="-242.5" font-family="Arial" font-size="15.00">4&#45;TERMX</text>
</g>
<!-- n__github -->
<g id="node2" class="node">
<title>n__github</title>
<polygon fill="#eeeeee" stroke="#555555" points="81,-188 27,-188 27,-152 81,-152 81,-188"/>
<text text-anchor="middle" x="54" y="-167.5" font-family="Arial" font-size="10.00">.github</text>
</g>
<!-- root&#45;&gt;n__github -->
<g id="edge10" class="edge">
<title>root&#45;&gt;n__github</title>
<path fill="none" stroke="#777777" d="M322.83,-255C238.51,-255 54,-255 54,-255 54,-255 54,-194.03 54,-194.03"/>
<polygon fill="#777777" stroke="#777777" points="56.1,-194.03 54,-188.03 51.9,-194.03 56.1,-194.03"/>
</g>
<!-- n__termux -->
<g id="node3" class="node">
<title>n__termux</title>
<polygon fill="#eeeeee" stroke="#555555" points="166,-188 112,-188 112,-152 166,-152 166,-188"/>
<text text-anchor="middle" x="139" y="-167.5" font-family="Arial" font-size="10.00">.termux</text>
</g>
<!-- root&#45;&gt;n__termux -->
<g id="edge11" class="edge">
<title>root&#45;&gt;n__termux</title>
<path fill="none" stroke="#777777" d="M322.99,-246C258.1,-246 139,-246 139,-246 139,-246 139,-194.01 139,-194.01"/>
<polygon fill="#777777" stroke="#777777" points="141.1,-194.01 139,-188.01 136.9,-194.01 141.1,-194.01"/>
</g>
<!-- n_docs -->
<g id="node4" class="node">
<title>n_docs</title>
<polygon fill="#eeeeee" stroke="#555555" points="240,-188 186,-188 186,-152 240,-152 240,-188"/>
<text text-anchor="middle" x="213" y="-167.5" font-family="Arial" font-size="10.00">docs</text>
</g>
<!-- root&#45;&gt;n_docs -->
<g id="edge12" class="edge">
<title>root&#45;&gt;n_docs</title>
<path fill="none" stroke="#777777" d="M322.74,-237C278.03,-237 213,-237 213,-237 213,-237 213,-194.31 213,-194.31"/>
<polygon fill="#777777" stroke="#777777" points="215.1,-194.31 213,-188.31 210.9,-194.31 215.1,-194.31"/>
</g>
<!-- n__gitconfig -->
<g id="node6" class="node">
<title>n__gitconfig</title>
<polygon fill="white" stroke="#555555" points="310,-188 260,-188 260,-152 316,-152 316,-182 310,-188"/>
<polyline fill="none" stroke="#555555" points="310,-188 310,-182 "/>
<polyline fill="none" stroke="#555555" points="316,-182 310,-182 "/>
<text text-anchor="middle" x="288" y="-167.5" font-family="Arial" font-size="10.00">.gitconfig</text>
</g>
<!-- root&#45;&gt;n__gitconfig -->
<g id="edge1" class="edge">
<title>root&#45;&gt;n__gitconfig</title>
<path fill="none" stroke="#777777" d="M329.5,-227.99C329.5,-205.51 329.5,-170 329.5,-170 329.5,-170 322.37,-170 322.37,-170"/>
<polygon fill="#777777" stroke="#777777" points="322.37,-167.9 316.37,-170 322.37,-172.1 322.37,-167.9"/>
</g>
<!-- n__gitignore -->
<g id="node8" class="node">
<title>n__gitignore</title>
<polygon fill="white" stroke="#555555" points="386,-188 336,-188 336,-152 392,-152 392,-182 386,-188"/>
<polyline fill="none" stroke="#555555" points="386,-188 386,-182 "/>
<polyline fill="none" stroke="#555555" points="392,-182 386,-182 "/>
<text text-anchor="middle" x="364" y="-167.5" font-family="Arial" font-size="10.00">.gitignore</text>
</g>
<!-- root&#45;&gt;n__gitignore -->
<g id="edge3" class="edge">
<title>root&#45;&gt;n__gitignore</title>
<path fill="none" stroke="#777777" d="M364,-227.99C364,-227.99 364,-194.15 364,-194.15"/>
<polygon fill="#777777" stroke="#777777" points="366.1,-194.15 364,-188.15 361.9,-194.15 366.1,-194.15"/>
</g>
<!-- n__zshrc -->
<g id="node10" class="node">
<title>n__zshrc</title>
<polygon fill="white" stroke="#555555" points="460,-188 412,-188 412,-152 466,-152 466,-182 460,-188"/>
<polyline fill="none" stroke="#555555" points="460,-188 460,-182 "/>
<polyline fill="none" stroke="#555555" points="466,-182 460,-182 "/>
<text text-anchor="middle" x="439" y="-167.5" font-family="Arial" font-size="10.00">.zshrc</text>
</g>
<!-- root&#45;&gt;n__zshrc -->
<g id="edge5" class="edge">
<title>root&#45;&gt;n__zshrc</title>
<path fill="none" stroke="#777777" d="M398.5,-227.99C398.5,-205.51 398.5,-170 398.5,-170 398.5,-170 405.76,-170 405.76,-170"/>
<polygon fill="#777777" stroke="#777777" points="405.76,-172.1 411.76,-170 405.76,-167.9 405.76,-172.1"/>
</g>
<!-- n_README_md -->
<g id="node11" class="node">
<title>n_README_md</title>
<polygon fill="white" stroke="#555555" points="557.5,-188 486.5,-188 486.5,-152 563.5,-152 563.5,-182 557.5,-188"/>
<polyline fill="none" stroke="#555555" points="557.5,-188 557.5,-182 "/>
<polyline fill="none" stroke="#555555" points="563.5,-182 557.5,-182 "/>
<text text-anchor="middle" x="525" y="-167.5" font-family="Arial" font-size="10.00">README.md</text>
</g>
<!-- root&#45;&gt;n_README_md -->
<g id="edge6" class="edge">
<title>root&#45;&gt;n_README_md</title>
<path fill="none" stroke="#777777" d="M405.04,-237C452.74,-237 525,-237 525,-237 525,-237 525,-194.31 525,-194.31"/>
<polygon fill="#777777" stroke="#777777" points="527.1,-194.31 525,-188.31 522.9,-194.31 527.1,-194.31"/>
</g>
<!-- n_sync_repo_sh -->
<g id="node13" class="node">
<title>n_sync_repo_sh</title>
<polygon fill="white" stroke="#555555" points="650.5,-188 583.5,-188 583.5,-152 656.5,-152 656.5,-182 650.5,-188"/>
<polyline fill="none" stroke="#555555" points="650.5,-188 650.5,-182 "/>
<polyline fill="none" stroke="#555555" points="656.5,-182 650.5,-182 "/>
<text text-anchor="middle" x="620" y="-167.5" font-family="Arial" font-size="10.00">sync&#45;repo.sh</text>
</g>
<!-- root&#45;&gt;n_sync_repo_sh -->
<g id="edge8" class="edge">
<title>root&#45;&gt;n_sync_repo_sh</title>
<path fill="none" stroke="#777777" d="M405.13,-246C477.5,-246 620,-246 620,-246 620,-246 620,-194.01 620,-194.01"/>
<polygon fill="#777777" stroke="#777777" points="622.1,-194.01 620,-188.01 617.9,-194.01 622.1,-194.01"/>
</g>
<!-- n_update_readme_tree_py -->
<g id="node14" class="node">
<title>n_update_readme_tree_py</title>
<polygon fill="white" stroke="#555555" points="789.5,-188 676.5,-188 676.5,-152 795.5,-152 795.5,-182 789.5,-188"/>
<polyline fill="none" stroke="#555555" points="789.5,-188 789.5,-182 "/>
<polyline fill="none" stroke="#555555" points="795.5,-182 789.5,-182 "/>
<text text-anchor="middle" x="736" y="-167.5" font-family="Arial" font-size="10.00">update_readme_tree.py</text>
</g>
<!-- root&#45;&gt;n_update_readme_tree_py -->
<g id="edge9" class="edge">
<title>root&#45;&gt;n_update_readme_tree_py</title>
<path fill="none" stroke="#777777" d="M405.23,-255C502.09,-255 736,-255 736,-255 736,-255 736,-194.03 736,-194.03"/>
<polygon fill="#777777" stroke="#777777" points="738.1,-194.03 736,-188.03 733.9,-194.03 738.1,-194.03"/>
</g>
<!-- n__github_workflows -->
<g id="node5" class="node">
<title>n__github_workflows</title>
<polygon fill="#eeeeee" stroke="#555555" points="72.5,-112 11.5,-112 11.5,-76 72.5,-76 72.5,-112"/>
<text text-anchor="middle" x="42" y="-91.5" font-family="Arial" font-size="10.00">workflows</text>
</g>
<!-- n__github&#45;&gt;n__github_workflows -->
<g id="edge13" class="edge">
<title>n__github&#45;&gt;n__github_workflows</title>
<path fill="none" stroke="#777777" d="M49.75,-151.99C49.75,-151.99 49.75,-118.15 49.75,-118.15"/>
<polygon fill="#777777" stroke="#777777" points="51.85,-118.15 49.75,-112.15 47.65,-118.15 51.85,-118.15"/>
</g>
<!-- n__termux_termux_properties -->
<g id="node9" class="node">
<title>n__termux_termux_properties</title>
<polygon fill="white" stroke="#555555" points="179,-112 93,-112 93,-76 185,-76 185,-106 179,-112"/>
<polyline fill="none" stroke="#555555" points="179,-112 179,-106 "/>
<polyline fill="none" stroke="#555555" points="185,-106 179,-106 "/>
<text text-anchor="middle" x="139" y="-91.5" font-family="Arial" font-size="10.00">termux.properties</text>
</g>
<!-- n__termux&#45;&gt;n__termux_termux_properties -->
<g id="edge4" class="edge">
<title>n__termux&#45;&gt;n__termux_termux_properties</title>
<path fill="none" stroke="#777777" d="M139,-151.99C139,-151.99 139,-118.15 139,-118.15"/>
<polygon fill="#777777" stroke="#777777" points="141.1,-118.15 139,-112.15 136.9,-118.15 141.1,-118.15"/>
</g>
<!-- n_docs_repository_map_md -->
<g id="node12" class="node">
<title>n_docs_repository_map_md</title>
<polygon fill="white" stroke="#555555" points="297,-112 205,-112 205,-76 303,-76 303,-106 297,-112"/>
<polyline fill="none" stroke="#555555" points="297,-112 297,-106 "/>
<polyline fill="none" stroke="#555555" points="303,-106 297,-106 "/>
<text text-anchor="middle" x="254" y="-91.5" font-family="Arial" font-size="10.00">repository&#45;map.md</text>
</g>
<!-- n_docs&#45;&gt;n_docs_repository_map_md -->
<g id="edge7" class="edge">
<title>n_docs&#45;&gt;n_docs_repository_map_md</title>
<path fill="none" stroke="#777777" d="M222.5,-151.99C222.5,-151.99 222.5,-118.15 222.5,-118.15"/>
<polygon fill="#777777" stroke="#777777" points="224.6,-118.15 222.5,-112.15 220.4,-118.15 224.6,-118.15"/>
</g>
<!-- n__github_workflows_update_tree_yml -->
<g id="node7" class="node">
<title>n__github_workflows_update_tree_yml</title>
<polygon fill="white" stroke="#555555" points="78,-36 0,-36 0,0 84,0 84,-30 78,-36"/>
<polyline fill="none" stroke="#555555" points="78,-36 78,-30 "/>
<polyline fill="none" stroke="#555555" points="84,-30 78,-30 "/>
<text text-anchor="middle" x="42" y="-15.5" font-family="Arial" font-size="10.00">update&#45;tree.yml</text>
</g>
<!-- n__github_workflows&#45;&gt;n__github_workflows_update_tree_yml -->
<g id="edge2" class="edge">
<title>n__github_workflows&#45;&gt;n__github_workflows_update_tree_yml</title>
<path fill="none" stroke="#777777" d="M42,-75.99C42,-75.99 42,-42.15 42,-42.15"/>
<polygon fill="#777777" stroke="#777777" points="44.1,-42.15 42,-36.15 39.9,-42.15 44.1,-42.15"/>
</g>
</g>
</svg>
