<?xml version="1.0" encoding="UTF-8" standalone="no"?>
<!DOCTYPE svg PUBLIC "-//W3C//DTD SVG 1.1//EN"
 "http://www.w3.org/Graphics/SVG/1.1/DTD/svg11.dtd">
<!-- Generated by graphviz version 2.43.0 (0)
 -->
<!-- Title: RepositoryArchitecture Pages: 1 -->
<svg width="1377pt" height="625pt"
 viewBox="0.00 0.00 1377.20 625.20" xmlns="http://www.w3.org/2000/svg" xmlns:xlink="http://www.w3.org/1999/xlink">
<g id="graph0" class="graph" transform="scale(1 1) rotate(0) translate(21.6 603.6)">
<title>RepositoryArchitecture</title>
<polygon fill="white" stroke="transparent" points="-21.6,21.6 -21.6,-603.6 1355.6,-603.6 1355.6,21.6 -21.6,21.6"/>
<text text-anchor="middle" x="667" y="-562" font-family="Times,serif" font-size="20.00">4&#45;TERMX — Arquitectura / relaciones</text>
<!-- root -->
<g id="node1" class="node">
<title>root</title>
<path fill="#eeeeee" stroke="#555555" d="M612.5,-552C612.5,-552 554.5,-552 554.5,-552 548.5,-552 542.5,-546 542.5,-540 542.5,-540 542.5,-528 542.5,-528 542.5,-522 548.5,-516 554.5,-516 554.5,-516 612.5,-516 612.5,-516 618.5,-516 624.5,-522 624.5,-528 624.5,-528 624.5,-540 624.5,-540 624.5,-546 618.5,-552 612.5,-552"/>
<text text-anchor="middle" x="583.5" y="-530.5" font-family="Arial" font-size="15.00">4&#45;TERMX</text>
</g>
<!-- dir_n__github -->
<g id="node2" class="node">
<title>dir_n__github</title>
<path fill="#eeeeee" stroke="#555555" d="M152.5,-393C152.5,-393 122.5,-393 122.5,-393 116.5,-393 110.5,-387 110.5,-381 110.5,-381 110.5,-369 110.5,-369 110.5,-363 116.5,-357 122.5,-357 122.5,-357 152.5,-357 152.5,-357 158.5,-357 164.5,-363 164.5,-369 164.5,-369 164.5,-381 164.5,-381 164.5,-387 158.5,-393 152.5,-393"/>
<text text-anchor="middle" x="137.5" y="-372.5" font-family="Arial" font-size="10.00">.github</text>
</g>
<!-- root&#45;&gt;dir_n__github -->
<g id="edge1" class="edge">
<title>root&#45;&gt;dir_n__github</title>
<path fill="none" stroke="#777777" d="M542.34,-538C431.93,-538 137.5,-538 137.5,-538 137.5,-538 137.5,-399.57 137.5,-399.57"/>
<polygon fill="#777777" stroke="#777777" points="139.78,-399.57 137.5,-393.07 135.23,-399.57 139.78,-399.57"/>
</g>
<!-- dir_n__termux -->
<g id="node3" class="node">
<title>dir_n__termux</title>
<path fill="#eeeeee" stroke="#555555" d="M416.5,-453C416.5,-453 386.5,-453 386.5,-453 380.5,-453 374.5,-447 374.5,-441 374.5,-441 374.5,-429 374.5,-429 374.5,-423 380.5,-417 386.5,-417 386.5,-417 416.5,-417 416.5,-417 422.5,-417 428.5,-423 428.5,-429 428.5,-429 428.5,-441 428.5,-441 428.5,-447 422.5,-453 416.5,-453"/>
<text text-anchor="middle" x="401.5" y="-432.5" font-family="Arial" font-size="10.00">.termux</text>
</g>
<!-- root&#45;&gt;dir_n__termux -->
<g id="edge2" class="edge">
<title>root&#45;&gt;dir_n__termux</title>
<path fill="none" stroke="#777777" d="M542.2,-525C488.5,-525 401.5,-525 401.5,-525 401.5,-525 401.5,-459.71 401.5,-459.71"/>
<polygon fill="#777777" stroke="#777777" points="403.78,-459.71 401.5,-453.21 399.23,-459.71 403.78,-459.71"/>
</g>
<!-- dir_n_docs -->
<g id="node4" class="node">
<title>dir_n_docs</title>
<path fill="#eeeeee" stroke="#555555" d="M502.5,-453C502.5,-453 472.5,-453 472.5,-453 466.5,-453 460.5,-447 460.5,-441 460.5,-441 460.5,-429 460.5,-429 460.5,-423 466.5,-417 472.5,-417 472.5,-417 502.5,-417 502.5,-417 508.5,-417 514.5,-423 514.5,-429 514.5,-429 514.5,-441 514.5,-441 514.5,-447 508.5,-453 502.5,-453"/>
<text text-anchor="middle" x="487.5" y="-432.5" font-family="Arial" font-size="10.00">docs</text>
</g>
<!-- root&#45;&gt;dir_n_docs -->
<g id="edge3" class="edge">
<title>root&#45;&gt;dir_n_docs</title>
<path fill="none" stroke="#777777" d="M542.23,-520C516.21,-520 487.5,-520 487.5,-520 487.5,-520 487.5,-459.53 487.5,-459.53"/>
<polygon fill="#777777" stroke="#777777" points="489.78,-459.53 487.5,-453.03 485.23,-459.53 489.78,-459.53"/>
</g>
<!-- dir_n_infrastructure -->
<g id="node5" class="node">
<title>dir_n_infrastructure</title>
<path fill="#eeeeee" stroke="#555555" d="M608.5,-453C608.5,-453 558.5,-453 558.5,-453 552.5,-453 546.5,-447 546.5,-441 546.5,-441 546.5,-429 546.5,-429 546.5,-423 552.5,-417 558.5,-417 558.5,-417 608.5,-417 608.5,-417 614.5,-417 620.5,-423 620.5,-429 620.5,-429 620.5,-441 620.5,-441 620.5,-447 614.5,-453 608.5,-453"/>
<text text-anchor="middle" x="583.5" y="-432.5" font-family="Arial" font-size="10.00">infrastructure</text>
</g>
<!-- root&#45;&gt;dir_n_infrastructure -->
<g id="edge4" class="edge">
<title>root&#45;&gt;dir_n_infrastructure</title>
<path fill="none" stroke="#777777" d="M583.5,-515.84C583.5,-515.84 583.5,-459.54 583.5,-459.54"/>
<polygon fill="#777777" stroke="#777777" points="585.78,-459.54 583.5,-453.04 581.23,-459.54 585.78,-459.54"/>
</g>
<!-- dir_n_scripts -->
<g id="node6" class="node">
<title>dir_n_scripts</title>
<path fill="#eeeeee" stroke="#555555" d="M694.5,-453C694.5,-453 664.5,-453 664.5,-453 658.5,-453 652.5,-447 652.5,-441 652.5,-441 652.5,-429 652.5,-429 652.5,-423 658.5,-417 664.5,-417 664.5,-417 694.5,-417 694.5,-417 700.5,-417 706.5,-423 706.5,-429 706.5,-429 706.5,-441 706.5,-441 706.5,-447 700.5,-453 694.5,-453"/>
<text text-anchor="middle" x="679.5" y="-432.5" font-family="Arial" font-size="10.00">scripts</text>
</g>
<!-- root&#45;&gt;dir_n_scripts -->
<g id="edge5" class="edge">
<title>root&#45;&gt;dir_n_scripts</title>
<path fill="none" stroke="#777777" d="M624.77,-520C650.79,-520 679.5,-520 679.5,-520 679.5,-520 679.5,-459.53 679.5,-459.53"/>
<polygon fill="#777777" stroke="#777777" points="681.78,-459.53 679.5,-453.03 677.23,-459.53 681.78,-459.53"/>
</g>
<!-- file_n__gitconfig -->
<g id="node7" class="node">
<title>file_n__gitconfig</title>
<polygon fill="white" stroke="#555555" points="788.5,-453 738.5,-453 738.5,-417 794.5,-417 794.5,-447 788.5,-453"/>
<polyline fill="none" stroke="#555555" points="788.5,-453 788.5,-447 "/>
<polyline fill="none" stroke="#555555" points="794.5,-447 788.5,-447 "/>
<text text-anchor="middle" x="766.5" y="-432.5" font-family="Arial" font-size="10.00">.gitconfig</text>
</g>
<!-- root&#45;&gt;file_n__gitconfig -->
<g id="edge6" class="edge">
<title>root&#45;&gt;file_n__gitconfig</title>
<path fill="none" stroke="#777777" d="M624.57,-525C678.52,-525 766.5,-525 766.5,-525 766.5,-525 766.5,-459.71 766.5,-459.71"/>
<polygon fill="#777777" stroke="#777777" points="768.78,-459.71 766.5,-453.21 764.23,-459.71 768.78,-459.71"/>
</g>
<!-- file_n__gitignore -->
<g id="node8" class="node">
<title>file_n__gitignore</title>
<polygon fill="white" stroke="#555555" points="876.5,-453 826.5,-453 826.5,-417 882.5,-417 882.5,-447 876.5,-453"/>
<polyline fill="none" stroke="#555555" points="876.5,-453 876.5,-447 "/>
<polyline fill="none" stroke="#555555" points="882.5,-447 876.5,-447 "/>
<text text-anchor="middle" x="854.5" y="-432.5" font-family="Arial" font-size="10.00">.gitignore</text>
</g>
<!-- root&#45;&gt;file_n__gitignore -->
<g id="edge7" class="edge">
<title>root&#45;&gt;file_n__gitignore</title>
<path fill="none" stroke="#777777" d="M624.66,-529C700.47,-529 854.5,-529 854.5,-529 854.5,-529 854.5,-459.62 854.5,-459.62"/>
<polygon fill="#777777" stroke="#777777" points="856.78,-459.62 854.5,-453.12 852.23,-459.62 856.78,-459.62"/>
</g>
<!-- file_n__zshrc -->
<g id="node9" class="node">
<title>file_n__zshrc</title>
<polygon fill="white" stroke="#555555" points="962.5,-453 914.5,-453 914.5,-417 968.5,-417 968.5,-447 962.5,-453"/>
<polyline fill="none" stroke="#555555" points="962.5,-453 962.5,-447 "/>
<polyline fill="none" stroke="#555555" points="968.5,-447 962.5,-447 "/>
<text text-anchor="middle" x="941.5" y="-432.5" font-family="Arial" font-size="10.00">.zshrc</text>
</g>
<!-- root&#45;&gt;file_n__zshrc -->
<g id="edge8" class="edge">
<title>root&#45;&gt;file_n__zshrc</title>
<path fill="none" stroke="#777777" d="M624.57,-534C718.6,-534 941.5,-534 941.5,-534 941.5,-534 941.5,-459.66 941.5,-459.66"/>
<polygon fill="#777777" stroke="#777777" points="943.78,-459.66 941.5,-453.16 939.23,-459.66 943.78,-459.66"/>
</g>
<!-- file_n_README_md -->
<g id="node10" class="node">
<title>file_n_README_md</title>
<polygon fill="white" stroke="#555555" points="1072,-453 1001,-453 1001,-417 1078,-417 1078,-447 1072,-453"/>
<polyline fill="none" stroke="#555555" points="1072,-453 1072,-447 "/>
<polyline fill="none" stroke="#555555" points="1078,-447 1072,-447 "/>
<text text-anchor="middle" x="1039.5" y="-432.5" font-family="Arial" font-size="10.00">README.md</text>
</g>
<!-- root&#45;&gt;file_n_README_md -->
<g id="edge9" class="edge">
<title>root&#45;&gt;file_n_README_md</title>
<path fill="none" stroke="#777777" d="M624.77,-538C737.02,-538 1039.5,-538 1039.5,-538 1039.5,-538 1039.5,-459.91 1039.5,-459.91"/>
<polygon fill="#777777" stroke="#777777" points="1041.78,-459.91 1039.5,-453.41 1037.23,-459.91 1041.78,-459.91"/>
</g>
<!-- file_n_sync_repo_sh -->
<g id="node11" class="node">
<title>file_n_sync_repo_sh</title>
<polygon fill="white" stroke="#555555" points="1177,-453 1110,-453 1110,-417 1183,-417 1183,-447 1177,-453"/>
<polyline fill="none" stroke="#555555" points="1177,-453 1177,-447 "/>
<polyline fill="none" stroke="#555555" points="1183,-447 1177,-447 "/>
<text text-anchor="middle" x="1146.5" y="-432.5" font-family="Arial" font-size="10.00">sync&#45;repo.sh</text>
</g>
<!-- root&#45;&gt;file_n_sync_repo_sh -->
<g id="edge10" class="edge">
<title>root&#45;&gt;file_n_sync_repo_sh</title>
<path fill="none" stroke="#777777" d="M624.9,-543C754.92,-543 1146.5,-543 1146.5,-543 1146.5,-543 1146.5,-459.82 1146.5,-459.82"/>
<polygon fill="#777777" stroke="#777777" points="1148.78,-459.82 1146.5,-453.32 1144.23,-459.82 1148.78,-459.82"/>
</g>
<!-- file_n_update_readme_tree_py -->
<g id="node12" class="node">
<title>file_n_update_readme_tree_py</title>
<polygon fill="white" stroke="#555555" points="1328,-453 1215,-453 1215,-417 1334,-417 1334,-447 1328,-453"/>
<polyline fill="none" stroke="#555555" points="1328,-453 1328,-447 "/>
<polyline fill="none" stroke="#555555" points="1334,-447 1328,-447 "/>
<text text-anchor="middle" x="1274.5" y="-432.5" font-family="Arial" font-size="10.00">update_readme_tree.py</text>
</g>
<!-- root&#45;&gt;file_n_update_readme_tree_py -->
<g id="edge11" class="edge">
<title>root&#45;&gt;file_n_update_readme_tree_py</title>
<path fill="none" stroke="#777777" d="M624.66,-547C773.42,-547 1274.5,-547 1274.5,-547 1274.5,-547 1274.5,-459.99 1274.5,-459.99"/>
<polygon fill="#777777" stroke="#777777" points="1276.78,-459.99 1274.5,-453.49 1272.23,-459.99 1276.78,-459.99"/>
</g>
<!-- generator -->
<g id="node14" class="node">
<title>generator</title>
<path fill="#f3f3f3" stroke="#555555" d="M182,-135C182,-135 87,-135 87,-135 81,-135 75,-129 75,-123 75,-123 75,-111 75,-111 75,-105 81,-99 87,-99 87,-99 182,-99 182,-99 188,-99 194,-105 194,-111 194,-111 194,-123 194,-123 194,-129 188,-135 182,-135"/>
<text text-anchor="middle" x="134.5" y="-120" font-family="Arial" font-size="10.00">update_readme_tree.py</text>
<text text-anchor="middle" x="134.5" y="-109" font-family="Arial" font-size="10.00">descubre + genera</text>
</g>
<!-- root&#45;&gt;generator -->
<g id="edge13" class="edge">
<title>root&#45;&gt;generator</title>
<path fill="none" stroke="#777777" d="M542.08,-543C423.77,-543 92.75,-543 92.75,-543 92.75,-543 92.75,-141.53 92.75,-141.53"/>
<polygon fill="#777777" stroke="#777777" points="95.03,-141.53 92.75,-135.03 90.48,-141.53 95.03,-141.53"/>
</g>
<!-- readme -->
<g id="node15" class="node">
<title>readme</title>
<polygon fill="white" stroke="#555555" points="71,-36 0,-36 0,0 77,0 77,-30 71,-36"/>
<polyline fill="none" stroke="#555555" points="71,-36 71,-30 "/>
<polyline fill="none" stroke="#555555" points="77,-30 71,-30 "/>
<text text-anchor="middle" x="38.5" y="-15.5" font-family="Arial" font-size="10.00">README.md</text>
</g>
<!-- root&#45;&gt;readme -->
<g id="edge14" class="edge">
<title>root&#45;&gt;readme</title>
<path fill="none" stroke="#777777" d="M542.46,-547C415.48,-547 37.5,-547 37.5,-547 37.5,-547 37.5,-42.71 37.5,-42.71"/>
<polygon fill="#777777" stroke="#777777" points="39.78,-42.71 37.5,-36.21 35.23,-42.71 39.78,-42.71"/>
</g>
<!-- docs -->
<g id="node16" class="node">
<title>docs</title>
<path fill="#eeeeee" stroke="#555555" d="M330.5,-453C330.5,-453 300.5,-453 300.5,-453 294.5,-453 288.5,-447 288.5,-441 288.5,-441 288.5,-429 288.5,-429 288.5,-423 294.5,-417 300.5,-417 300.5,-417 330.5,-417 330.5,-417 336.5,-417 342.5,-423 342.5,-429 342.5,-429 342.5,-441 342.5,-441 342.5,-447 336.5,-453 330.5,-453"/>
<text text-anchor="middle" x="315.5" y="-432.5" font-family="Arial" font-size="10.00">docs</text>
</g>
<!-- root&#45;&gt;docs -->
<g id="edge15" class="edge">
<title>root&#45;&gt;docs</title>
<path fill="none" stroke="#777777" d="M542.21,-529C467.04,-529 315.5,-529 315.5,-529 315.5,-529 315.5,-459.62 315.5,-459.62"/>
<polygon fill="#777777" stroke="#777777" points="317.78,-459.62 315.5,-453.12 313.23,-459.62 317.78,-459.62"/>
</g>
<!-- github -->
<g id="node22" class="node">
<title>github</title>
<path fill="#eeeeee" stroke="#555555" d="M242.5,-453C242.5,-453 212.5,-453 212.5,-453 206.5,-453 200.5,-447 200.5,-441 200.5,-441 200.5,-429 200.5,-429 200.5,-423 206.5,-417 212.5,-417 212.5,-417 242.5,-417 242.5,-417 248.5,-417 254.5,-423 254.5,-429 254.5,-429 254.5,-441 254.5,-441 254.5,-447 248.5,-453 242.5,-453"/>
<text text-anchor="middle" x="227.5" y="-432.5" font-family="Arial" font-size="10.00">GitHub</text>
</g>
<!-- root&#45;&gt;github -->
<g id="edge24" class="edge">
<title>root&#45;&gt;github</title>
<path fill="none" stroke="#777777" stroke-dasharray="5,2" d="M542.31,-534C448.6,-534 227.5,-534 227.5,-534 227.5,-534 227.5,-459.66 227.5,-459.66"/>
<polygon fill="#777777" stroke="#777777" points="229.78,-459.66 227.5,-453.16 225.23,-459.66 229.78,-459.66"/>
<text text-anchor="middle" x="275" y="-480.8" font-family="Times,serif" font-size="14.00">repositorio</text>
</g>
<!-- workflow -->
<g id="node13" class="node">
<title>workflow</title>
<path fill="#f3f3f3" stroke="#555555" d="M188.5,-234C188.5,-234 128.5,-234 128.5,-234 122.5,-234 116.5,-228 116.5,-222 116.5,-222 116.5,-210 116.5,-210 116.5,-204 122.5,-198 128.5,-198 128.5,-198 188.5,-198 188.5,-198 194.5,-198 200.5,-204 200.5,-210 200.5,-210 200.5,-222 200.5,-222 200.5,-228 194.5,-234 188.5,-234"/>
<text text-anchor="middle" x="158.5" y="-219" font-family="Arial" font-size="10.00">update&#45;tree.yml</text>
<text text-anchor="middle" x="158.5" y="-208" font-family="Arial" font-size="10.00">GitHub Actions</text>
</g>
<!-- dir_n__github&#45;&gt;workflow -->
<g id="edge12" class="edge">
<title>dir_n__github&#45;&gt;workflow</title>
<path fill="none" stroke="#777777" d="M140.5,-356.76C140.5,-356.76 140.5,-240.53 140.5,-240.53"/>
<polygon fill="#777777" stroke="#777777" points="142.78,-240.53 140.5,-234.03 138.23,-240.53 142.78,-240.53"/>
</g>
<!-- workflow&#45;&gt;generator -->
<g id="edge21" class="edge">
<title>workflow&#45;&gt;generator</title>
<path fill="none" stroke="#777777" d="M155.25,-197.84C155.25,-197.84 155.25,-141.54 155.25,-141.54"/>
<polygon fill="#777777" stroke="#777777" points="157.53,-141.54 155.25,-135.04 152.98,-141.54 157.53,-141.54"/>
<text text-anchor="middle" x="184.5" y="-162.8" font-family="Times,serif" font-size="14.00">ejecuta</text>
</g>
<!-- generator&#45;&gt;readme -->
<g id="edge22" class="edge">
<title>generator&#45;&gt;readme</title>
<path fill="none" stroke="#777777" d="M101.75,-98.84C101.75,-70.26 101.75,-18 101.75,-18 101.75,-18 83.61,-18 83.61,-18"/>
<polygon fill="#777777" stroke="#777777" points="83.61,-15.73 77.11,-18 83.61,-20.28 83.61,-15.73"/>
<text text-anchor="middle" x="88.5" y="-63.8" font-family="Times,serif" font-size="14.00">actualiza</text>
</g>
<!-- doc_n_docs_repository_map_md -->
<g id="node20" class="node">
<title>doc_n_docs_repository_map_md</title>
<polygon fill="white" stroke="#555555" points="218.5,-36 126.5,-36 126.5,0 224.5,0 224.5,-30 218.5,-36"/>
<polyline fill="none" stroke="#555555" points="218.5,-36 218.5,-30 "/>
<polyline fill="none" stroke="#555555" points="224.5,-30 218.5,-30 "/>
<text text-anchor="middle" x="175.5" y="-15.5" font-family="Arial" font-size="10.00">repository&#45;map.md</text>
</g>
<!-- generator&#45;&gt;doc_n_docs_repository_map_md -->
<g id="edge23" class="edge">
<title>generator&#45;&gt;doc_n_docs_repository_map_md</title>
<path fill="none" stroke="#777777" d="M160.25,-98.84C160.25,-98.84 160.25,-42.54 160.25,-42.54"/>
<polygon fill="#777777" stroke="#777777" points="162.53,-42.54 160.25,-36.04 157.98,-42.54 162.53,-42.54"/>
<text text-anchor="middle" x="182.5" y="-63.8" font-family="Times,serif" font-size="14.00">genera</text>
</g>
<!-- doc_n_docs_conocimiento_4_termx_md -->
<g id="node17" class="node">
<title>doc_n_docs_conocimiento_4_termx_md</title>
<polygon fill="white" stroke="#555555" points="486,-333 365,-333 365,-297 492,-297 492,-327 486,-333"/>
<polyline fill="none" stroke="#555555" points="486,-333 486,-327 "/>
<polyline fill="none" stroke="#555555" points="492,-327 486,-327 "/>
<text text-anchor="middle" x="428.5" y="-312.5" font-family="Arial" font-size="10.00">conocimiento&#45;4&#45;termx.md</text>
</g>
<!-- docs&#45;&gt;doc_n_docs_conocimiento_4_termx_md -->
<g id="edge16" class="edge">
<title>docs&#45;&gt;doc_n_docs_conocimiento_4_termx_md</title>
<path fill="none" stroke="#777777" d="M342.62,-435C356.19,-435 369.75,-435 369.75,-435 369.75,-435 369.75,-339.73 369.75,-339.73"/>
<polygon fill="#777777" stroke="#777777" points="372.03,-339.73 369.75,-333.23 367.48,-339.73 372.03,-339.73"/>
</g>
<!-- doc_n_docs_infrastructure_md -->
<g id="node18" class="node">
<title>doc_n_docs_infrastructure_md</title>
<polygon fill="white" stroke="#555555" points="608.5,-333 524.5,-333 524.5,-297 614.5,-297 614.5,-327 608.5,-333"/>
<polyline fill="none" stroke="#555555" points="608.5,-333 608.5,-327 "/>
<polyline fill="none" stroke="#555555" points="614.5,-327 608.5,-327 "/>
<text text-anchor="middle" x="569.5" y="-312.5" font-family="Arial" font-size="10.00">infrastructure.md</text>
</g>
<!-- docs&#45;&gt;doc_n_docs_infrastructure_md -->
<g id="edge17" class="edge">
<title>docs&#45;&gt;doc_n_docs_infrastructure_md</title>
<path fill="none" stroke="#777777" d="M299.3,-416.58C299.3,-407.72 299.3,-399 299.3,-399 299.3,-399 533.5,-399 533.5,-399 533.5,-399 533.5,-339.73 533.5,-339.73"/>
<polygon fill="#777777" stroke="#777777" points="535.78,-339.73 533.5,-333.23 531.23,-339.73 535.78,-339.73"/>
</g>
<!-- doc_n_docs_pendientes_evolucion_md -->
<g id="node19" class="node">
<title>doc_n_docs_pendientes_evolucion_md</title>
<polygon fill="white" stroke="#555555" points="766,-333 647,-333 647,-297 772,-297 772,-327 766,-333"/>
<polyline fill="none" stroke="#555555" points="766,-333 766,-327 "/>
<polyline fill="none" stroke="#555555" points="772,-327 766,-327 "/>
<text text-anchor="middle" x="709.5" y="-312.5" font-family="Arial" font-size="10.00">pendientes&#45;evolucion.md</text>
</g>
<!-- docs&#45;&gt;doc_n_docs_pendientes_evolucion_md -->
<g id="edge18" class="edge">
<title>docs&#45;&gt;doc_n_docs_pendientes_evolucion_md</title>
<path fill="none" stroke="#777777" d="M310.1,-416.86C310.1,-410.54 310.1,-405 310.1,-405 310.1,-405 679.5,-405 679.5,-405 679.5,-405 679.5,-339.71 679.5,-339.71"/>
<polygon fill="#777777" stroke="#777777" points="681.78,-339.71 679.5,-333.21 677.23,-339.71 681.78,-339.71"/>
</g>
<!-- docs&#45;&gt;doc_n_docs_repository_map_md -->
<g id="edge19" class="edge">
<title>docs&#45;&gt;doc_n_docs_repository_map_md</title>
<path fill="none" stroke="#777777" d="M331.7,-416.81C331.7,-336.55 331.7,-18 331.7,-18 331.7,-18 231.42,-18 231.42,-18"/>
<polygon fill="#777777" stroke="#777777" points="231.42,-15.73 224.92,-18 231.42,-20.28 231.42,-15.73"/>
</g>
<!-- doc_n_docs_svg2canvas_py -->
<g id="node21" class="node">
<title>doc_n_docs_svg2canvas_py</title>
<polygon fill="white" stroke="#555555" points="881,-333 804,-333 804,-297 887,-297 887,-327 881,-333"/>
<polyline fill="none" stroke="#555555" points="881,-333 881,-327 "/>
<polyline fill="none" stroke="#555555" points="887,-327 881,-327 "/>
<text text-anchor="middle" x="845.5" y="-312.5" font-family="Arial" font-size="10.00">svg2canvas.py</text>
</g>
<!-- docs&#45;&gt;doc_n_docs_svg2canvas_py -->
<g id="edge20" class="edge">
<title>docs&#45;&gt;doc_n_docs_svg2canvas_py</title>
<path fill="none" stroke="#777777" d="M320.9,-416.81C320.9,-413.46 320.9,-411 320.9,-411 320.9,-411 815.25,-411 815.25,-411 815.25,-411 815.25,-339.56 815.25,-339.56"/>
<polygon fill="#777777" stroke="#777777" points="817.53,-339.56 815.25,-333.06 812.98,-339.56 817.53,-339.56"/>
</g>
<!-- actions -->
<g id="node23" class="node">
<title>actions</title>
<path fill="#eeeeee" stroke="#555555" d="M254,-333C254,-333 195,-333 195,-333 189,-333 183,-327 183,-321 183,-321 183,-309 183,-309 183,-303 189,-297 195,-297 195,-297 254,-297 254,-297 260,-297 266,-303 266,-309 266,-309 266,-321 266,-321 266,-327 260,-333 254,-333"/>
<text text-anchor="middle" x="224.5" y="-312.5" font-family="Arial" font-size="10.00">GitHub Actions</text>
</g>
<!-- github&#45;&gt;actions -->
<g id="edge25" class="edge">
<title>github&#45;&gt;actions</title>
<path fill="none" stroke="#777777" stroke-dasharray="5,2" d="M227.5,-416.77C227.5,-416.77 227.5,-339.5 227.5,-339.5"/>
<polygon fill="#777777" stroke="#777777" points="229.78,-339.5 227.5,-333 225.23,-339.5 229.78,-339.5"/>
</g>
<!-- actions&#45;&gt;workflow -->
<g id="edge26" class="edge">
<title>actions&#45;&gt;workflow</title>
<path fill="none" stroke="#777777" stroke-dasharray="5,2" d="M191.75,-296.84C191.75,-296.84 191.75,-240.54 191.75,-240.54"/>
<polygon fill="#777777" stroke="#777777" points="194.03,-240.54 191.75,-234.04 189.48,-240.54 194.03,-240.54"/>
<text text-anchor="middle" x="239" y="-261.8" font-family="Times,serif" font-size="14.00">workflow</text>
</g>
</g>
</svg>
