<?xml version="1.0" encoding="UTF-8" standalone="no"?>
<!DOCTYPE svg PUBLIC "-//W3C//DTD SVG 1.1//EN"
 "http://www.w3.org/Graphics/SVG/1.1/DTD/svg11.dtd">
<!-- Generated by graphviz version 2.43.0 (0)
 -->
<!-- Title: RepositoryStructure Pages: 1 -->
<svg width="3149pt" height="330pt"
 viewBox="0.00 0.00 3148.50 330.00" xmlns="http://www.w3.org/2000/svg" xmlns:xlink="http://www.w3.org/1999/xlink">
<g id="graph0" class="graph" transform="scale(1 1) rotate(0) translate(18 312)">
<title>RepositoryStructure</title>
<polygon fill="white" stroke="transparent" points="-18,18 -18,-312 3130.5,-312 3130.5,18 -18,18"/>
<text text-anchor="middle" x="1556.25" y="-274" font-family="Times,serif" font-size="20.00">4&#45;TERMX — Estructura real</text>
<!-- root -->
<g id="node1" class="node">
<title>root</title>
<polygon fill="#555555" stroke="#555555" stroke-width="2" points="2376.5,-264 2294.5,-264 2294.5,-228 2376.5,-228 2376.5,-264"/>
<text text-anchor="middle" x="2335.5" y="-242.5" font-family="Arial" font-size="15.00">4&#45;TERMX</text>
</g>
<!-- n__github -->
<g id="node2" class="node">
<title>n__github</title>
<polygon fill="#eeeeee" stroke="#555555" points="361.5,-188 307.5,-188 307.5,-152 361.5,-152 361.5,-188"/>
<text text-anchor="middle" x="334.5" y="-167.5" font-family="Arial" font-size="10.00">.github</text>
</g>
<!-- root&#45;&gt;n__github -->
<g id="edge39" class="edge">
<title>root&#45;&gt;n__github</title>
<path fill="none" stroke="#777777" d="M2294.17,-258C2008.14,-258 334.5,-258 334.5,-258 334.5,-258 334.5,-194.23 334.5,-194.23"/>
<polygon fill="#777777" stroke="#777777" points="336.6,-194.23 334.5,-188.23 332.4,-194.23 336.6,-194.23"/>
</g>
<!-- n__termux -->
<g id="node3" class="node">
<title>n__termux</title>
<polygon fill="#eeeeee" stroke="#555555" points="787.5,-188 733.5,-188 733.5,-152 787.5,-152 787.5,-188"/>
<text text-anchor="middle" x="760.5" y="-167.5" font-family="Arial" font-size="10.00">.termux</text>
</g>
<!-- root&#45;&gt;n__termux -->
<g id="edge40" class="edge">
<title>root&#45;&gt;n__termux</title>
<path fill="none" stroke="#777777" d="M2294.18,-253C2045.68,-253 760.5,-253 760.5,-253 760.5,-253 760.5,-194.01 760.5,-194.01"/>
<polygon fill="#777777" stroke="#777777" points="762.6,-194.01 760.5,-188.01 758.4,-194.01 762.6,-194.01"/>
</g>
<!-- n_docs -->
<g id="node4" class="node">
<title>n_docs</title>
<polygon fill="#eeeeee" stroke="#555555" points="1132.5,-188 1078.5,-188 1078.5,-152 1132.5,-152 1132.5,-188"/>
<text text-anchor="middle" x="1105.5" y="-167.5" font-family="Arial" font-size="10.00">docs</text>
</g>
<!-- root&#45;&gt;n_docs -->
<g id="edge41" class="edge">
<title>root&#45;&gt;n_docs</title>
<path fill="none" stroke="#777777" d="M2294.22,-248C2080.08,-248 1105.5,-248 1105.5,-248 1105.5,-248 1105.5,-194.09 1105.5,-194.09"/>
<polygon fill="#777777" stroke="#777777" points="1107.6,-194.09 1105.5,-188.09 1103.4,-194.09 1107.6,-194.09"/>
</g>
<!-- n_infrastructure -->
<g id="node5" class="node">
<title>n_infrastructure</title>
<polygon fill="#eeeeee" stroke="#555555" points="1693.5,-188 1619.5,-188 1619.5,-152 1693.5,-152 1693.5,-188"/>
<text text-anchor="middle" x="1656.5" y="-167.5" font-family="Arial" font-size="10.00">infrastructure</text>
</g>
<!-- root&#45;&gt;n_infrastructure -->
<g id="edge42" class="edge">
<title>root&#45;&gt;n_infrastructure</title>
<path fill="none" stroke="#777777" d="M2294.3,-243C2147.19,-243 1656.5,-243 1656.5,-243 1656.5,-243 1656.5,-194.04 1656.5,-194.04"/>
<polygon fill="#777777" stroke="#777777" points="1658.6,-194.04 1656.5,-188.04 1654.4,-194.04 1658.6,-194.04"/>
</g>
<!-- n_scripts -->
<g id="node6" class="node">
<title>n_scripts</title>
<polygon fill="#eeeeee" stroke="#555555" points="2175.5,-188 2121.5,-188 2121.5,-152 2175.5,-152 2175.5,-188"/>
<text text-anchor="middle" x="2148.5" y="-167.5" font-family="Arial" font-size="10.00">scripts</text>
</g>
<!-- root&#45;&gt;n_scripts -->
<g id="edge43" class="edge">
<title>root&#45;&gt;n_scripts</title>
<path fill="none" stroke="#777777" d="M2294.46,-238C2239.42,-238 2148.5,-238 2148.5,-238 2148.5,-238 2148.5,-194.22 2148.5,-194.22"/>
<polygon fill="#777777" stroke="#777777" points="2150.6,-194.22 2148.5,-188.22 2146.4,-194.22 2150.6,-194.22"/>
</g>
<!-- n_tests -->
<g id="node7" class="node">
<title>n_tests</title>
<polygon fill="#eeeeee" stroke="#555555" points="2249.5,-188 2195.5,-188 2195.5,-152 2249.5,-152 2249.5,-188"/>
<text text-anchor="middle" x="2222.5" y="-167.5" font-family="Arial" font-size="10.00">tests</text>
</g>
<!-- root&#45;&gt;n_tests -->
<g id="edge44" class="edge">
<title>root&#45;&gt;n_tests</title>
<path fill="none" stroke="#777777" d="M2294.38,-233C2262.08,-233 2222.5,-233 2222.5,-233 2222.5,-233 2222.5,-194.22 2222.5,-194.22"/>
<polygon fill="#777777" stroke="#777777" points="2224.6,-194.22 2222.5,-188.22 2220.4,-194.22 2224.6,-194.22"/>
</g>
<!-- n__gitconfig -->
<g id="node11" class="node">
<title>n__gitconfig</title>
<polygon fill="white" stroke="#555555" points="2319.5,-188 2269.5,-188 2269.5,-152 2325.5,-152 2325.5,-182 2319.5,-188"/>
<polyline fill="none" stroke="#555555" points="2319.5,-188 2319.5,-182 "/>
<polyline fill="none" stroke="#555555" points="2325.5,-182 2319.5,-182 "/>
<text text-anchor="middle" x="2297.5" y="-167.5" font-family="Arial" font-size="10.00">.gitconfig</text>
</g>
<!-- root&#45;&gt;n__gitconfig -->
<g id="edge1" class="edge">
<title>root&#45;&gt;n__gitconfig</title>
<path fill="none" stroke="#777777" d="M2310,-227.99C2310,-227.99 2310,-194.15 2310,-194.15"/>
<polygon fill="#777777" stroke="#777777" points="2312.1,-194.15 2310,-188.15 2307.9,-194.15 2312.1,-194.15"/>
</g>
<!-- n__gitignore -->
<g id="node17" class="node">
<title>n__gitignore</title>
<polygon fill="white" stroke="#555555" points="2395.5,-188 2345.5,-188 2345.5,-152 2401.5,-152 2401.5,-182 2395.5,-188"/>
<polyline fill="none" stroke="#555555" points="2395.5,-188 2395.5,-182 "/>
<polyline fill="none" stroke="#555555" points="2401.5,-182 2395.5,-182 "/>
<text text-anchor="middle" x="2373.5" y="-167.5" font-family="Arial" font-size="10.00">.gitignore</text>
</g>
<!-- root&#45;&gt;n__gitignore -->
<g id="edge7" class="edge">
<title>root&#45;&gt;n__gitignore</title>
<path fill="none" stroke="#777777" d="M2361,-227.99C2361,-227.99 2361,-194.15 2361,-194.15"/>
<polygon fill="#777777" stroke="#777777" points="2363.1,-194.15 2361,-188.15 2358.9,-194.15 2363.1,-194.15"/>
</g>
<!-- n__zshrc -->
<g id="node19" class="node">
<title>n__zshrc</title>
<polygon fill="white" stroke="#555555" points="2469.5,-188 2421.5,-188 2421.5,-152 2475.5,-152 2475.5,-182 2469.5,-188"/>
<polyline fill="none" stroke="#555555" points="2469.5,-188 2469.5,-182 "/>
<polyline fill="none" stroke="#555555" points="2475.5,-182 2469.5,-182 "/>
<text text-anchor="middle" x="2448.5" y="-167.5" font-family="Arial" font-size="10.00">.zshrc</text>
</g>
<!-- root&#45;&gt;n__zshrc -->
<g id="edge9" class="edge">
<title>root&#45;&gt;n__zshrc</title>
<path fill="none" stroke="#777777" d="M2376.62,-233C2408.92,-233 2448.5,-233 2448.5,-233 2448.5,-233 2448.5,-194.22 2448.5,-194.22"/>
<polygon fill="#777777" stroke="#777777" points="2450.6,-194.22 2448.5,-188.22 2446.4,-194.22 2450.6,-194.22"/>
</g>
<!-- n_CONTRIBUTING_md -->
<g id="node20" class="node">
<title>n_CONTRIBUTING_md</title>
<polygon fill="white" stroke="#555555" points="2599.5,-188 2495.5,-188 2495.5,-152 2605.5,-152 2605.5,-182 2599.5,-188"/>
<polyline fill="none" stroke="#555555" points="2599.5,-188 2599.5,-182 "/>
<polyline fill="none" stroke="#555555" points="2605.5,-182 2599.5,-182 "/>
<text text-anchor="middle" x="2550.5" y="-167.5" font-family="Arial" font-size="10.00">CONTRIBUTING.md</text>
</g>
<!-- root&#45;&gt;n_CONTRIBUTING_md -->
<g id="edge10" class="edge">
<title>root&#45;&gt;n_CONTRIBUTING_md</title>
<path fill="none" stroke="#777777" d="M2376.7,-238C2439.13,-238 2550.5,-238 2550.5,-238 2550.5,-238 2550.5,-194.22 2550.5,-194.22"/>
<polygon fill="#777777" stroke="#777777" points="2552.6,-194.22 2550.5,-188.22 2548.4,-194.22 2552.6,-194.22"/>
</g>
<!-- n_README_md -->
<g id="node21" class="node">
<title>n_README_md</title>
<polygon fill="white" stroke="#555555" points="2697,-188 2626,-188 2626,-152 2703,-152 2703,-182 2697,-188"/>
<polyline fill="none" stroke="#555555" points="2697,-188 2697,-182 "/>
<polyline fill="none" stroke="#555555" points="2703,-182 2697,-182 "/>
<text text-anchor="middle" x="2664.5" y="-167.5" font-family="Arial" font-size="10.00">README.md</text>
</g>
<!-- root&#45;&gt;n_README_md -->
<g id="edge11" class="edge">
<title>root&#45;&gt;n_README_md</title>
<path fill="none" stroke="#777777" d="M2376.5,-243C2464.7,-243 2664.5,-243 2664.5,-243 2664.5,-243 2664.5,-194.04 2664.5,-194.04"/>
<polygon fill="#777777" stroke="#777777" points="2666.6,-194.04 2664.5,-188.04 2662.4,-194.04 2666.6,-194.04"/>
</g>
<!-- n_SECURITY_md -->
<g id="node22" class="node">
<title>n_SECURITY_md</title>
<polygon fill="white" stroke="#555555" points="2800,-188 2723,-188 2723,-152 2806,-152 2806,-182 2800,-188"/>
<polyline fill="none" stroke="#555555" points="2800,-188 2800,-182 "/>
<polyline fill="none" stroke="#555555" points="2806,-182 2800,-182 "/>
<text text-anchor="middle" x="2764.5" y="-167.5" font-family="Arial" font-size="10.00">SECURITY.md</text>
</g>
<!-- root&#45;&gt;n_SECURITY_md -->
<g id="edge12" class="edge">
<title>root&#45;&gt;n_SECURITY_md</title>
<path fill="none" stroke="#777777" d="M2376.63,-248C2484.01,-248 2764.5,-248 2764.5,-248 2764.5,-248 2764.5,-194.09 2764.5,-194.09"/>
<polygon fill="#777777" stroke="#777777" points="2766.6,-194.09 2764.5,-188.09 2762.4,-194.09 2766.6,-194.09"/>
</g>
<!-- n_sync_repo_sh -->
<g id="node46" class="node">
<title>n_sync_repo_sh</title>
<polygon fill="white" stroke="#555555" points="2893,-188 2826,-188 2826,-152 2899,-152 2899,-182 2893,-188"/>
<polyline fill="none" stroke="#555555" points="2893,-188 2893,-182 "/>
<polyline fill="none" stroke="#555555" points="2899,-182 2893,-182 "/>
<text text-anchor="middle" x="2862.5" y="-167.5" font-family="Arial" font-size="10.00">sync&#45;repo.sh</text>
</g>
<!-- root&#45;&gt;n_sync_repo_sh -->
<g id="edge36" class="edge">
<title>root&#45;&gt;n_sync_repo_sh</title>
<path fill="none" stroke="#777777" d="M2376.85,-253C2501.09,-253 2862.5,-253 2862.5,-253 2862.5,-253 2862.5,-194.01 2862.5,-194.01"/>
<polygon fill="#777777" stroke="#777777" points="2864.6,-194.01 2862.5,-188.01 2860.4,-194.01 2864.6,-194.01"/>
</g>
<!-- n_update_readme_tree_py -->
<g id="node48" class="node">
<title>n_update_readme_tree_py</title>
<polygon fill="white" stroke="#555555" points="3032,-188 2919,-188 2919,-152 3038,-152 3038,-182 3032,-188"/>
<polyline fill="none" stroke="#555555" points="3032,-188 3032,-182 "/>
<polyline fill="none" stroke="#555555" points="3038,-182 3032,-182 "/>
<text text-anchor="middle" x="2978.5" y="-167.5" font-family="Arial" font-size="10.00">update_readme_tree.py</text>
</g>
<!-- root&#45;&gt;n_update_readme_tree_py -->
<g id="edge38" class="edge">
<title>root&#45;&gt;n_update_readme_tree_py</title>
<path fill="none" stroke="#777777" d="M2376.7,-258C2518.62,-258 2978.5,-258 2978.5,-258 2978.5,-258 2978.5,-194.23 2978.5,-194.23"/>
<polygon fill="#777777" stroke="#777777" points="2980.6,-194.23 2978.5,-188.23 2976.4,-194.23 2980.6,-194.23"/>
</g>
<!-- n__github_ISSUE_TEMPLATE -->
<g id="node8" class="node">
<title>n__github_ISSUE_TEMPLATE</title>
<polygon fill="#eeeeee" stroke="#555555" points="204.5,-112 100.5,-112 100.5,-76 204.5,-76 204.5,-112"/>
<text text-anchor="middle" x="152.5" y="-91.5" font-family="Arial" font-size="10.00">ISSUE_TEMPLATE</text>
</g>
<!-- n__github&#45;&gt;n__github_ISSUE_TEMPLATE -->
<g id="edge45" class="edge">
<title>n__github&#45;&gt;n__github_ISSUE_TEMPLATE</title>
<path fill="none" stroke="#777777" d="M307.25,-170C256.48,-170 152.5,-170 152.5,-170 152.5,-170 152.5,-118.01 152.5,-118.01"/>
<polygon fill="#777777" stroke="#777777" points="154.6,-118.01 152.5,-112.01 150.4,-118.01 154.6,-118.01"/>
</g>
<!-- n__github_workflows -->
<g id="node9" class="node">
<title>n__github_workflows</title>
<polygon fill="#eeeeee" stroke="#555555" points="297,-112 236,-112 236,-76 297,-76 297,-112"/>
<text text-anchor="middle" x="266.5" y="-91.5" font-family="Arial" font-size="10.00">workflows</text>
</g>
<!-- n__github&#45;&gt;n__github_workflows -->
<g id="edge46" class="edge">
<title>n__github&#45;&gt;n__github_workflows</title>
<path fill="none" stroke="#777777" d="M314.17,-151.97C314.17,-131.23 314.17,-100 314.17,-100 314.17,-100 303.23,-100 303.23,-100"/>
<polygon fill="#777777" stroke="#777777" points="303.23,-97.9 297.23,-100 303.23,-102.1 303.23,-97.9"/>
</g>
<!-- n__github_PULL_REQUEST_TEMPLATE_md -->
<g id="node14" class="node">
<title>n__github_PULL_REQUEST_TEMPLATE_md</title>
<polygon fill="white" stroke="#555555" points="480,-112 317,-112 317,-76 486,-76 486,-106 480,-112"/>
<polyline fill="none" stroke="#555555" points="480,-112 480,-106 "/>
<polyline fill="none" stroke="#555555" points="486,-106 480,-106 "/>
<text text-anchor="middle" x="401.5" y="-91.5" font-family="Arial" font-size="10.00">PULL_REQUEST_TEMPLATE.md</text>
</g>
<!-- n__github&#45;&gt;n__github_PULL_REQUEST_TEMPLATE_md -->
<g id="edge4" class="edge">
<title>n__github&#45;&gt;n__github_PULL_REQUEST_TEMPLATE_md</title>
<path fill="none" stroke="#777777" d="M339.25,-151.99C339.25,-151.99 339.25,-118.15 339.25,-118.15"/>
<polygon fill="#777777" stroke="#777777" points="341.35,-118.15 339.25,-112.15 337.15,-118.15 341.35,-118.15"/>
</g>
<!-- n__termux_termux_properties -->
<g id="node18" class="node">
<title>n__termux_termux_properties</title>
<polygon fill="white" stroke="#555555" points="592.5,-112 506.5,-112 506.5,-76 598.5,-76 598.5,-106 592.5,-112"/>
<polyline fill="none" stroke="#555555" points="592.5,-112 592.5,-106 "/>
<polyline fill="none" stroke="#555555" points="598.5,-106 592.5,-106 "/>
<text text-anchor="middle" x="552.5" y="-91.5" font-family="Arial" font-size="10.00">termux.properties</text>
</g>
<!-- n__termux&#45;&gt;n__termux_termux_properties -->
<g id="edge8" class="edge">
<title>n__termux&#45;&gt;n__termux_termux_properties</title>
<path fill="none" stroke="#777777" d="M733.31,-170C676.93,-170 552.5,-170 552.5,-170 552.5,-170 552.5,-118.01 552.5,-118.01"/>
<polygon fill="#777777" stroke="#777777" points="554.6,-118.01 552.5,-112.01 550.4,-118.01 554.6,-118.01"/>
</g>
<!-- n_docs_architecture_md -->
<g id="node23" class="node">
<title>n_docs_architecture_md</title>
<polygon fill="white" stroke="#555555" points="696.5,-112 618.5,-112 618.5,-76 702.5,-76 702.5,-106 696.5,-112"/>
<polyline fill="none" stroke="#555555" points="696.5,-112 696.5,-106 "/>
<polyline fill="none" stroke="#555555" points="702.5,-106 696.5,-106 "/>
<text text-anchor="middle" x="660.5" y="-91.5" font-family="Arial" font-size="10.00">architecture.md</text>
</g>
<!-- n_docs&#45;&gt;n_docs_architecture_md -->
<g id="edge13" class="edge">
<title>n_docs&#45;&gt;n_docs_architecture_md</title>
<path fill="none" stroke="#777777" d="M1081.17,-151.9C1081.17,-140.91 1081.17,-129 1081.17,-129 1081.17,-129 660.5,-129 660.5,-129 660.5,-129 660.5,-118.32 660.5,-118.32"/>
<polygon fill="#777777" stroke="#777777" points="662.6,-118.32 660.5,-112.32 658.4,-118.32 662.6,-118.32"/>
</g>
<!-- n_docs_conocimiento_4_termx_md -->
<g id="node24" class="node">
<title>n_docs_conocimiento_4_termx_md</title>
<polygon fill="white" stroke="#555555" points="844,-112 723,-112 723,-76 850,-76 850,-106 844,-112"/>
<polyline fill="none" stroke="#555555" points="844,-112 844,-106 "/>
<polyline fill="none" stroke="#555555" points="850,-106 844,-106 "/>
<text text-anchor="middle" x="786.5" y="-91.5" font-family="Arial" font-size="10.00">conocimiento&#45;4&#45;termx.md</text>
</g>
<!-- n_docs&#45;&gt;n_docs_conocimiento_4_termx_md -->
<g id="edge14" class="edge">
<title>n_docs&#45;&gt;n_docs_conocimiento_4_termx_md</title>
<path fill="none" stroke="#777777" d="M1078.26,-176C1006.69,-176 818.75,-176 818.75,-176 818.75,-176 818.75,-118.2 818.75,-118.2"/>
<polygon fill="#777777" stroke="#777777" points="820.85,-118.2 818.75,-112.2 816.65,-118.2 820.85,-118.2"/>
</g>
<!-- n_docs_design_principles_md -->
<g id="node25" class="node">
<title>n_docs_design_principles_md</title>
<polygon fill="white" stroke="#555555" points="970.5,-112 870.5,-112 870.5,-76 976.5,-76 976.5,-106 970.5,-112"/>
<polyline fill="none" stroke="#555555" points="970.5,-112 970.5,-106 "/>
<polyline fill="none" stroke="#555555" points="976.5,-106 970.5,-106 "/>
<text text-anchor="middle" x="923.5" y="-91.5" font-family="Arial" font-size="10.00">design&#45;principles.md</text>
</g>
<!-- n_docs&#45;&gt;n_docs_design_principles_md -->
<g id="edge15" class="edge">
<title>n_docs&#45;&gt;n_docs_design_principles_md</title>
<path fill="none" stroke="#777777" d="M1078.25,-164C1027.48,-164 923.5,-164 923.5,-164 923.5,-164 923.5,-118.03 923.5,-118.03"/>
<polygon fill="#777777" stroke="#777777" points="925.6,-118.03 923.5,-112.03 921.4,-118.03 925.6,-118.03"/>
</g>
<!-- n_docs_infrastructure_md -->
<g id="node26" class="node">
<title>n_docs_infrastructure_md</title>
<polygon fill="white" stroke="#555555" points="1080.5,-112 996.5,-112 996.5,-76 1086.5,-76 1086.5,-106 1080.5,-112"/>
<polyline fill="none" stroke="#555555" points="1080.5,-112 1080.5,-106 "/>
<polyline fill="none" stroke="#555555" points="1086.5,-106 1080.5,-106 "/>
<text text-anchor="middle" x="1041.5" y="-91.5" font-family="Arial" font-size="10.00">infrastructure.md</text>
</g>
<!-- n_docs&#45;&gt;n_docs_infrastructure_md -->
<g id="edge16" class="edge">
<title>n_docs&#45;&gt;n_docs_infrastructure_md</title>
<path fill="none" stroke="#777777" d="M1083.83,-151.99C1083.83,-151.99 1083.83,-118.15 1083.83,-118.15"/>
<polygon fill="#777777" stroke="#777777" points="1085.93,-118.15 1083.83,-112.15 1081.73,-118.15 1085.93,-118.15"/>
</g>
<!-- n_docs_pendientes_evolucion_md -->
<g id="node27" class="node">
<title>n_docs_pendientes_evolucion_md</title>
<polygon fill="white" stroke="#555555" points="1226,-112 1107,-112 1107,-76 1232,-76 1232,-106 1226,-112"/>
<polyline fill="none" stroke="#555555" points="1226,-112 1226,-106 "/>
<polyline fill="none" stroke="#555555" points="1232,-106 1226,-106 "/>
<text text-anchor="middle" x="1169.5" y="-91.5" font-family="Arial" font-size="10.00">pendientes&#45;evolucion.md</text>
</g>
<!-- n_docs&#45;&gt;n_docs_pendientes_evolucion_md -->
<g id="edge17" class="edge">
<title>n_docs&#45;&gt;n_docs_pendientes_evolucion_md</title>
<path fill="none" stroke="#777777" d="M1119.75,-151.99C1119.75,-151.99 1119.75,-118.15 1119.75,-118.15"/>
<polygon fill="#777777" stroke="#777777" points="1121.85,-118.15 1119.75,-112.15 1117.65,-118.15 1121.85,-118.15"/>
</g>
<!-- n_docs_repository_map_md -->
<g id="node28" class="node">
<title>n_docs_repository_map_md</title>
<polygon fill="white" stroke="#555555" points="1344.5,-112 1252.5,-112 1252.5,-76 1350.5,-76 1350.5,-106 1344.5,-112"/>
<polyline fill="none" stroke="#555555" points="1344.5,-112 1344.5,-106 "/>
<polyline fill="none" stroke="#555555" points="1350.5,-106 1344.5,-106 "/>
<text text-anchor="middle" x="1301.5" y="-91.5" font-family="Arial" font-size="10.00">repository&#45;map.md</text>
</g>
<!-- n_docs&#45;&gt;n_docs_repository_map_md -->
<g id="edge18" class="edge">
<title>n_docs&#45;&gt;n_docs_repository_map_md</title>
<path fill="none" stroke="#777777" d="M1132.75,-170C1186.61,-170 1301.5,-170 1301.5,-170 1301.5,-170 1301.5,-118.01 1301.5,-118.01"/>
<polygon fill="#777777" stroke="#777777" points="1303.6,-118.01 1301.5,-112.01 1299.4,-118.01 1303.6,-118.01"/>
</g>
<!-- n_docs_svg2canvas_py -->
<g id="node29" class="node">
<title>n_docs_svg2canvas_py</title>
<polygon fill="white" stroke="#555555" points="1448,-112 1371,-112 1371,-76 1454,-76 1454,-106 1448,-112"/>
<polyline fill="none" stroke="#555555" points="1448,-112 1448,-106 "/>
<polyline fill="none" stroke="#555555" points="1454,-106 1448,-106 "/>
<text text-anchor="middle" x="1412.5" y="-91.5" font-family="Arial" font-size="10.00">svg2canvas.py</text>
</g>
<!-- n_docs&#45;&gt;n_docs_svg2canvas_py -->
<g id="edge19" class="edge">
<title>n_docs&#45;&gt;n_docs_svg2canvas_py</title>
<path fill="none" stroke="#777777" d="M1132.74,-179C1207.88,-179 1412.5,-179 1412.5,-179 1412.5,-179 1412.5,-118.03 1412.5,-118.03"/>
<polygon fill="#777777" stroke="#777777" points="1414.6,-118.03 1412.5,-112.03 1410.4,-118.03 1414.6,-118.03"/>
</g>
<!-- n_infrastructure_history -->
<g id="node10" class="node">
<title>n_infrastructure_history</title>
<polygon fill="#eeeeee" stroke="#555555" points="1528.5,-112 1474.5,-112 1474.5,-76 1528.5,-76 1528.5,-112"/>
<text text-anchor="middle" x="1501.5" y="-91.5" font-family="Arial" font-size="10.00">history</text>
</g>
<!-- n_infrastructure&#45;&gt;n_infrastructure_history -->
<g id="edge47" class="edge">
<title>n_infrastructure&#45;&gt;n_infrastructure_history</title>
<path fill="none" stroke="#777777" d="M1619.37,-161C1573.52,-161 1501.5,-161 1501.5,-161 1501.5,-161 1501.5,-118.31 1501.5,-118.31"/>
<polygon fill="#777777" stroke="#777777" points="1503.6,-118.31 1501.5,-112.31 1499.4,-118.31 1503.6,-118.31"/>
</g>
<!-- n_infrastructure_desired_state_json -->
<g id="node30" class="node">
<title>n_infrastructure_desired_state_json</title>
<polygon fill="white" stroke="#555555" points="1636.5,-112 1548.5,-112 1548.5,-76 1642.5,-76 1642.5,-106 1636.5,-112"/>
<polyline fill="none" stroke="#555555" points="1636.5,-112 1636.5,-106 "/>
<polyline fill="none" stroke="#555555" points="1642.5,-106 1636.5,-106 "/>
<text text-anchor="middle" x="1595.5" y="-91.5" font-family="Arial" font-size="10.00">desired&#45;state.json</text>
</g>
<!-- n_infrastructure&#45;&gt;n_infrastructure_desired_state_json -->
<g id="edge20" class="edge">
<title>n_infrastructure&#45;&gt;n_infrastructure_desired_state_json</title>
<path fill="none" stroke="#777777" d="M1631,-151.99C1631,-151.99 1631,-118.15 1631,-118.15"/>
<polygon fill="#777777" stroke="#777777" points="1633.1,-118.15 1631,-112.15 1628.9,-118.15 1633.1,-118.15"/>
</g>
<!-- n_infrastructure_system_manifest_json -->
<g id="node34" class="node">
<title>n_infrastructure_system_manifest_json</title>
<polygon fill="white" stroke="#555555" points="1766.5,-112 1662.5,-112 1662.5,-76 1772.5,-76 1772.5,-106 1766.5,-112"/>
<polyline fill="none" stroke="#555555" points="1766.5,-112 1766.5,-106 "/>
<polyline fill="none" stroke="#555555" points="1772.5,-106 1766.5,-106 "/>
<text text-anchor="middle" x="1717.5" y="-91.5" font-family="Arial" font-size="10.00">system&#45;manifest.json</text>
</g>
<!-- n_infrastructure&#45;&gt;n_infrastructure_system_manifest_json -->
<g id="edge24" class="edge">
<title>n_infrastructure&#45;&gt;n_infrastructure_system_manifest_json</title>
<path fill="none" stroke="#777777" d="M1678,-151.99C1678,-151.99 1678,-118.15 1678,-118.15"/>
<polygon fill="#777777" stroke="#777777" points="1680.1,-118.15 1678,-112.15 1675.9,-118.15 1680.1,-118.15"/>
</g>
<!-- n_scripts_bajada -->
<g id="node35" class="node">
<title>n_scripts_bajada</title>
<polygon fill="white" stroke="#555555" points="1846.5,-112 1792.5,-112 1792.5,-76 1846.5,-76 1846.5,-112"/>
<text text-anchor="middle" x="1819.5" y="-91.5" font-family="Arial" font-size="10.00">bajada</text>
</g>
<!-- n_scripts&#45;&gt;n_scripts_bajada -->
<g id="edge25" class="edge">
<title>n_scripts&#45;&gt;n_scripts_bajada</title>
<path fill="none" stroke="#777777" d="M2121.3,-179C2042.47,-179 1819.5,-179 1819.5,-179 1819.5,-179 1819.5,-118.03 1819.5,-118.03"/>
<polygon fill="#777777" stroke="#777777" points="1821.6,-118.03 1819.5,-112.03 1817.4,-118.03 1821.6,-118.03"/>
</g>
<!-- n_scripts_infra_audit_py -->
<g id="node36" class="node">
<title>n_scripts_infra_audit_py</title>
<polygon fill="white" stroke="#555555" points="1934,-112 1867,-112 1867,-76 1940,-76 1940,-106 1934,-112"/>
<polyline fill="none" stroke="#555555" points="1934,-112 1934,-106 "/>
<polyline fill="none" stroke="#555555" points="1940,-106 1934,-106 "/>
<text text-anchor="middle" x="1903.5" y="-91.5" font-family="Arial" font-size="10.00">infra&#45;audit.py</text>
</g>
<!-- n_scripts&#45;&gt;n_scripts_infra_audit_py -->
<g id="edge26" class="edge">
<title>n_scripts&#45;&gt;n_scripts_infra_audit_py</title>
<path fill="none" stroke="#777777" d="M2121.34,-170C2057.56,-170 1903.5,-170 1903.5,-170 1903.5,-170 1903.5,-118.01 1903.5,-118.01"/>
<polygon fill="#777777" stroke="#777777" points="1905.6,-118.01 1903.5,-112.01 1901.4,-118.01 1905.6,-118.01"/>
</g>
<!-- n_scripts_infra_git_sync_sh -->
<g id="node37" class="node">
<title>n_scripts_infra_git_sync_sh</title>
<polygon fill="white" stroke="#555555" points="2040.5,-112 1960.5,-112 1960.5,-76 2046.5,-76 2046.5,-106 2040.5,-112"/>
<polyline fill="none" stroke="#555555" points="2040.5,-112 2040.5,-106 "/>
<polyline fill="none" stroke="#555555" points="2046.5,-106 2040.5,-106 "/>
<text text-anchor="middle" x="2003.5" y="-91.5" font-family="Arial" font-size="10.00">infra&#45;git&#45;sync.sh</text>
</g>
<!-- n_scripts&#45;&gt;n_scripts_infra_git_sync_sh -->
<g id="edge27" class="edge">
<title>n_scripts&#45;&gt;n_scripts_infra_git_sync_sh</title>
<path fill="none" stroke="#777777" d="M2121.23,-161C2079.22,-161 2003.5,-161 2003.5,-161 2003.5,-161 2003.5,-118.31 2003.5,-118.31"/>
<polygon fill="#777777" stroke="#777777" points="2005.6,-118.31 2003.5,-112.31 2001.4,-118.31 2005.6,-118.31"/>
</g>
<!-- n_scripts_infra_note_py -->
<g id="node38" class="node">
<title>n_scripts_infra_note_py</title>
<polygon fill="white" stroke="#555555" points="2132,-112 2067,-112 2067,-76 2138,-76 2138,-106 2132,-112"/>
<polyline fill="none" stroke="#555555" points="2132,-112 2132,-106 "/>
<polyline fill="none" stroke="#555555" points="2138,-106 2132,-106 "/>
<text text-anchor="middle" x="2102.5" y="-91.5" font-family="Arial" font-size="10.00">infra&#45;note.py</text>
</g>
<!-- n_scripts&#45;&gt;n_scripts_infra_note_py -->
<g id="edge28" class="edge">
<title>n_scripts&#45;&gt;n_scripts_infra_note_py</title>
<path fill="none" stroke="#777777" d="M2129.75,-151.99C2129.75,-151.99 2129.75,-118.15 2129.75,-118.15"/>
<polygon fill="#777777" stroke="#777777" points="2131.85,-118.15 2129.75,-112.15 2127.65,-118.15 2131.85,-118.15"/>
</g>
<!-- n_scripts_infra_sync_py -->
<g id="node39" class="node">
<title>n_scripts_infra_sync_py</title>
<polygon fill="white" stroke="#555555" points="2225,-112 2158,-112 2158,-76 2231,-76 2231,-106 2225,-112"/>
<polyline fill="none" stroke="#555555" points="2225,-112 2225,-106 "/>
<polyline fill="none" stroke="#555555" points="2231,-106 2225,-106 "/>
<text text-anchor="middle" x="2194.5" y="-91.5" font-family="Arial" font-size="10.00">infra&#45;sync.py</text>
</g>
<!-- n_scripts&#45;&gt;n_scripts_infra_sync_py -->
<g id="edge29" class="edge">
<title>n_scripts&#45;&gt;n_scripts_infra_sync_py</title>
<path fill="none" stroke="#777777" d="M2160.19,-151.99C2160.19,-151.99 2160.19,-118.15 2160.19,-118.15"/>
<polygon fill="#777777" stroke="#777777" points="2162.29,-118.15 2160.19,-112.15 2158.09,-118.15 2162.29,-118.15"/>
</g>
<!-- n_scripts_infra_sync_sh -->
<g id="node40" class="node">
<title>n_scripts_infra_sync_sh</title>
<polygon fill="white" stroke="#555555" points="2318,-112 2251,-112 2251,-76 2324,-76 2324,-106 2318,-112"/>
<polyline fill="none" stroke="#555555" points="2318,-112 2318,-106 "/>
<polyline fill="none" stroke="#555555" points="2324,-106 2318,-106 "/>
<text text-anchor="middle" x="2287.5" y="-91.5" font-family="Arial" font-size="10.00">infra&#45;sync.sh</text>
</g>
<!-- n_scripts&#45;&gt;n_scripts_infra_sync_sh -->
<g id="edge30" class="edge">
<title>n_scripts&#45;&gt;n_scripts_infra_sync_sh</title>
<path fill="none" stroke="#777777" d="M2162.38,-151.72C2162.38,-136.05 2162.38,-116 2162.38,-116 2162.38,-116 2260.25,-116 2260.25,-116 2260.25,-116 2260.25,-115.62 2260.25,-115.62"/>
<polygon fill="#777777" stroke="#777777" points="2262.35,-118.17 2260.25,-112.17 2258.15,-118.17 2262.35,-118.17"/>
</g>
<!-- n_scripts_infra_wrapper_sh -->
<g id="node41" class="node">
<title>n_scripts_infra_wrapper_sh</title>
<polygon fill="white" stroke="#555555" points="2424.5,-112 2344.5,-112 2344.5,-76 2430.5,-76 2430.5,-106 2424.5,-112"/>
<polyline fill="none" stroke="#555555" points="2424.5,-112 2424.5,-106 "/>
<polyline fill="none" stroke="#555555" points="2430.5,-106 2424.5,-106 "/>
<text text-anchor="middle" x="2387.5" y="-91.5" font-family="Arial" font-size="10.00">infra&#45;wrapper.sh</text>
</g>
<!-- n_scripts&#45;&gt;n_scripts_infra_wrapper_sh -->
<g id="edge31" class="edge">
<title>n_scripts&#45;&gt;n_scripts_infra_wrapper_sh</title>
<path fill="none" stroke="#777777" d="M2164.56,-151.95C2164.56,-137.63 2164.56,-120 2164.56,-120 2164.56,-120 2373.5,-120 2373.5,-120 2373.5,-120 2373.5,-118.06 2373.5,-118.06"/>
<polygon fill="#777777" stroke="#777777" points="2375.6,-118.06 2373.5,-112.06 2371.4,-118.06 2375.6,-118.06"/>
</g>
<!-- n_scripts_install_infra_wrappers_sh -->
<g id="node42" class="node">
<title>n_scripts_install_infra_wrappers_sh</title>
<polygon fill="white" stroke="#555555" points="2564.5,-112 2450.5,-112 2450.5,-76 2570.5,-76 2570.5,-106 2564.5,-112"/>
<polyline fill="none" stroke="#555555" points="2564.5,-112 2564.5,-106 "/>
<polyline fill="none" stroke="#555555" points="2570.5,-106 2564.5,-106 "/>
<text text-anchor="middle" x="2510.5" y="-91.5" font-family="Arial" font-size="10.00">install&#45;infra&#45;wrappers.sh</text>
</g>
<!-- n_scripts&#45;&gt;n_scripts_install_infra_wrappers_sh -->
<g id="edge32" class="edge">
<title>n_scripts&#45;&gt;n_scripts_install_infra_wrappers_sh</title>
<path fill="none" stroke="#777777" d="M2166.75,-151.96C2166.75,-139.44 2166.75,-125 2166.75,-125 2166.75,-125 2463,-125 2463,-125 2463,-125 2463,-118.03 2463,-118.03"/>
<polygon fill="#777777" stroke="#777777" points="2465.1,-118.03 2463,-112.03 2460.9,-118.03 2465.1,-118.03"/>
</g>
<!-- n_scripts_install_sync_commands_sh -->
<g id="node43" class="node">
<title>n_scripts_install_sync_commands_sh</title>
<polygon fill="white" stroke="#555555" points="2716,-112 2591,-112 2591,-76 2722,-76 2722,-106 2716,-112"/>
<polyline fill="none" stroke="#555555" points="2716,-112 2716,-106 "/>
<polyline fill="none" stroke="#555555" points="2722,-106 2716,-106 "/>
<text text-anchor="middle" x="2656.5" y="-91.5" font-family="Arial" font-size="10.00">install&#45;sync&#45;commands.sh</text>
</g>
<!-- n_scripts&#45;&gt;n_scripts_install_sync_commands_sh -->
<g id="edge33" class="edge">
<title>n_scripts&#45;&gt;n_scripts_install_sync_commands_sh</title>
<path fill="none" stroke="#777777" d="M2168.94,-151.58C2168.94,-142.72 2168.94,-134 2168.94,-134 2168.94,-134 2598.25,-134 2598.25,-134 2598.25,-134 2598.25,-118.13 2598.25,-118.13"/>
<polygon fill="#777777" stroke="#777777" points="2600.35,-118.13 2598.25,-112.13 2596.15,-118.13 2600.35,-118.13"/>
</g>
<!-- n_scripts_subida -->
<g id="node44" class="node">
<title>n_scripts_subida</title>
<polygon fill="white" stroke="#555555" points="2796.5,-112 2742.5,-112 2742.5,-76 2796.5,-76 2796.5,-112"/>
<text text-anchor="middle" x="2769.5" y="-91.5" font-family="Arial" font-size="10.00">subida</text>
</g>
<!-- n_scripts&#45;&gt;n_scripts_subida -->
<g id="edge34" class="edge">
<title>n_scripts&#45;&gt;n_scripts_subida</title>
<path fill="none" stroke="#777777" d="M2171.12,-151.76C2171.12,-144.57 2171.12,-138 2171.12,-138 2171.12,-138 2769.5,-138 2769.5,-138 2769.5,-138 2769.5,-118.15 2769.5,-118.15"/>
<polygon fill="#777777" stroke="#777777" points="2771.6,-118.15 2769.5,-112.15 2767.4,-118.15 2771.6,-118.15"/>
</g>
<!-- n_scripts_sync_canvas_to_obsidian_py -->
<g id="node45" class="node">
<title>n_scripts_sync_canvas_to_obsidian_py</title>
<polygon fill="white" stroke="#555555" points="2946.5,-112 2816.5,-112 2816.5,-76 2952.5,-76 2952.5,-106 2946.5,-112"/>
<polyline fill="none" stroke="#555555" points="2946.5,-112 2946.5,-106 "/>
<polyline fill="none" stroke="#555555" points="2952.5,-106 2946.5,-106 "/>
<text text-anchor="middle" x="2884.5" y="-91.5" font-family="Arial" font-size="10.00">sync&#45;canvas&#45;to&#45;obsidian.py</text>
</g>
<!-- n_scripts&#45;&gt;n_scripts_sync_canvas_to_obsidian_py -->
<g id="edge35" class="edge">
<title>n_scripts&#45;&gt;n_scripts_sync_canvas_to_obsidian_py</title>
<path fill="none" stroke="#777777" d="M2173.31,-151.84C2173.31,-146.96 2173.31,-143 2173.31,-143 2173.31,-143 2821.25,-143 2821.25,-143 2821.25,-143 2821.25,-118.25 2821.25,-118.25"/>
<polygon fill="#777777" stroke="#777777" points="2823.35,-118.25 2821.25,-112.25 2819.15,-118.25 2823.35,-118.25"/>
</g>
<!-- n_tests_test_update_readme_tree_py -->
<g id="node47" class="node">
<title>n_tests_test_update_readme_tree_py</title>
<polygon fill="white" stroke="#555555" points="3106.5,-112 2972.5,-112 2972.5,-76 3112.5,-76 3112.5,-106 3106.5,-112"/>
<polyline fill="none" stroke="#555555" points="3106.5,-112 3106.5,-106 "/>
<polyline fill="none" stroke="#555555" points="3112.5,-106 3106.5,-106 "/>
<text text-anchor="middle" x="3042.5" y="-91.5" font-family="Arial" font-size="10.00">test_update_readme_tree.py</text>
</g>
<!-- n_tests&#45;&gt;n_tests_test_update_readme_tree_py -->
<g id="edge37" class="edge">
<title>n_tests&#45;&gt;n_tests_test_update_readme_tree_py</title>
<path fill="none" stroke="#777777" d="M2240.25,-151.88C2240.25,-149.03 2240.25,-147 2240.25,-147 2240.25,-147 3005.25,-147 3005.25,-147 3005.25,-147 3005.25,-118.24 3005.25,-118.24"/>
<polygon fill="#777777" stroke="#777777" points="3007.35,-118.24 3005.25,-112.24 3003.15,-118.24 3007.35,-118.24"/>
</g>
<!-- n__github_ISSUE_TEMPLATE_bug_report_yml -->
<g id="node12" class="node">
<title>n__github_ISSUE_TEMPLATE_bug_report_yml</title>
<polygon fill="white" stroke="#555555" points="75,-36 0,-36 0,0 81,0 81,-30 75,-36"/>
<polyline fill="none" stroke="#555555" points="75,-36 75,-30 "/>
<polyline fill="none" stroke="#555555" points="81,-30 75,-30 "/>
<text text-anchor="middle" x="40.5" y="-15.5" font-family="Arial" font-size="10.00">bug_report.yml</text>
</g>
<!-- n__github_ISSUE_TEMPLATE&#45;&gt;n__github_ISSUE_TEMPLATE_bug_report_yml -->
<g id="edge2" class="edge">
<title>n__github_ISSUE_TEMPLATE&#45;&gt;n__github_ISSUE_TEMPLATE_bug_report_yml</title>
<path fill="none" stroke="#777777" d="M100.43,-94C71.19,-94 40.5,-94 40.5,-94 40.5,-94 40.5,-42.01 40.5,-42.01"/>
<polygon fill="#777777" stroke="#777777" points="42.6,-42.01 40.5,-36.01 38.4,-42.01 42.6,-42.01"/>
</g>
<!-- n__github_ISSUE_TEMPLATE_feature_request_yml -->
<g id="node13" class="node">
<title>n__github_ISSUE_TEMPLATE_feature_request_yml</title>
<polygon fill="white" stroke="#555555" points="198,-36 101,-36 101,0 204,0 204,-30 198,-36"/>
<polyline fill="none" stroke="#555555" points="198,-36 198,-30 "/>
<polyline fill="none" stroke="#555555" points="204,-30 198,-30 "/>
<text text-anchor="middle" x="152.5" y="-15.5" font-family="Arial" font-size="10.00">feature_request.yml</text>
</g>
<!-- n__github_ISSUE_TEMPLATE&#45;&gt;n__github_ISSUE_TEMPLATE_feature_request_yml -->
<g id="edge3" class="edge">
<title>n__github_ISSUE_TEMPLATE&#45;&gt;n__github_ISSUE_TEMPLATE_feature_request_yml</title>
<path fill="none" stroke="#777777" d="M152.5,-75.99C152.5,-75.99 152.5,-42.15 152.5,-42.15"/>
<polygon fill="#777777" stroke="#777777" points="154.6,-42.15 152.5,-36.15 150.4,-42.15 154.6,-42.15"/>
</g>
<!-- n__github_workflows_update_tree_yml -->
<g id="node15" class="node">
<title>n__github_workflows_update_tree_yml</title>
<polygon fill="white" stroke="#555555" points="302.5,-36 224.5,-36 224.5,0 308.5,0 308.5,-30 302.5,-36"/>
<polyline fill="none" stroke="#555555" points="302.5,-36 302.5,-30 "/>
<polyline fill="none" stroke="#555555" points="308.5,-30 302.5,-30 "/>
<text text-anchor="middle" x="266.5" y="-15.5" font-family="Arial" font-size="10.00">update&#45;tree.yml</text>
</g>
<!-- n__github_workflows&#45;&gt;n__github_workflows_update_tree_yml -->
<g id="edge5" class="edge">
<title>n__github_workflows&#45;&gt;n__github_workflows_update_tree_yml</title>
<path fill="none" stroke="#777777" d="M266.5,-75.99C266.5,-75.99 266.5,-42.15 266.5,-42.15"/>
<polygon fill="#777777" stroke="#777777" points="268.6,-42.15 266.5,-36.15 264.4,-42.15 268.6,-42.15"/>
</g>
<!-- n__github_workflows_validate_yml -->
<g id="node16" class="node">
<title>n__github_workflows_validate_yml</title>
<polygon fill="white" stroke="#555555" points="392,-36 329,-36 329,0 398,0 398,-30 392,-36"/>
<polyline fill="none" stroke="#555555" points="392,-36 392,-30 "/>
<polyline fill="none" stroke="#555555" points="398,-30 392,-30 "/>
<text text-anchor="middle" x="363.5" y="-15.5" font-family="Arial" font-size="10.00">validate.yml</text>
</g>
<!-- n__github_workflows&#45;&gt;n__github_workflows_validate_yml -->
<g id="edge6" class="edge">
<title>n__github_workflows&#45;&gt;n__github_workflows_validate_yml</title>
<path fill="none" stroke="#777777" d="M297.15,-88C305.03,-88 311.33,-88 311.33,-88 311.33,-88 311.33,-18 311.33,-18 311.33,-18 322.99,-18 322.99,-18"/>
<polygon fill="#777777" stroke="#777777" points="322.99,-20.1 328.99,-18 322.99,-15.9 322.99,-20.1"/>
</g>
<!-- n_infrastructure_history_infrastructure_history_jsonl -->
<g id="node31" class="node">
<title>n_infrastructure_history_infrastructure_history_jsonl</title>
<polygon fill="white" stroke="#555555" points="1401.5,-36 1279.5,-36 1279.5,0 1407.5,0 1407.5,-30 1401.5,-36"/>
<polyline fill="none" stroke="#555555" points="1401.5,-36 1401.5,-30 "/>
<polyline fill="none" stroke="#555555" points="1407.5,-30 1401.5,-30 "/>
<text text-anchor="middle" x="1343.5" y="-15.5" font-family="Arial" font-size="10.00">infrastructure&#45;history.jsonl</text>
</g>
<!-- n_infrastructure_history&#45;&gt;n_infrastructure_history_infrastructure_history_jsonl -->
<g id="edge21" class="edge">
<title>n_infrastructure_history&#45;&gt;n_infrastructure_history_infrastructure_history_jsonl</title>
<path fill="none" stroke="#777777" d="M1488,-75.76C1488,-68.57 1488,-62 1488,-62 1488,-62 1389.25,-62 1389.25,-62 1389.25,-62 1389.25,-42.15 1389.25,-42.15"/>
<polygon fill="#777777" stroke="#777777" points="1391.35,-42.15 1389.25,-36.15 1387.15,-42.15 1391.35,-42.15"/>
</g>
<!-- n_infrastructure_history_package_operation_cursor_json -->
<g id="node32" class="node">
<title>n_infrastructure_history_package_operation_cursor_json</title>
<polygon fill="white" stroke="#555555" points="1569,-36 1428,-36 1428,0 1575,0 1575,-30 1569,-36"/>
<polyline fill="none" stroke="#555555" points="1569,-36 1569,-30 "/>
<polyline fill="none" stroke="#555555" points="1575,-30 1569,-30 "/>
<text text-anchor="middle" x="1501.5" y="-15.5" font-family="Arial" font-size="10.00">package&#45;operation&#45;cursor.json</text>
</g>
<!-- n_infrastructure_history&#45;&gt;n_infrastructure_history_package_operation_cursor_json -->
<g id="edge22" class="edge">
<title>n_infrastructure_history&#45;&gt;n_infrastructure_history_package_operation_cursor_json</title>
<path fill="none" stroke="#777777" d="M1501.5,-75.99C1501.5,-75.99 1501.5,-42.15 1501.5,-42.15"/>
<polygon fill="#777777" stroke="#777777" points="1503.6,-42.15 1501.5,-36.15 1499.4,-42.15 1503.6,-42.15"/>
</g>
<!-- n_infrastructure_history_pkg_operation_cursor_json -->
<g id="node33" class="node">
<title>n_infrastructure_history_pkg_operation_cursor_json</title>
<polygon fill="white" stroke="#555555" points="1715.5,-36 1595.5,-36 1595.5,0 1721.5,0 1721.5,-30 1715.5,-36"/>
<polyline fill="none" stroke="#555555" points="1715.5,-36 1715.5,-30 "/>
<polyline fill="none" stroke="#555555" points="1721.5,-30 1715.5,-30 "/>
<text text-anchor="middle" x="1658.5" y="-15.5" font-family="Arial" font-size="10.00">pkg&#45;operation&#45;cursor.json</text>
</g>
<!-- n_infrastructure_history&#45;&gt;n_infrastructure_history_pkg_operation_cursor_json -->
<g id="edge23" class="edge">
<title>n_infrastructure_history&#45;&gt;n_infrastructure_history_pkg_operation_cursor_json</title>
<path fill="none" stroke="#777777" d="M1515,-75.96C1515,-63.44 1515,-49 1515,-49 1515,-49 1619,-49 1619,-49 1619,-49 1619,-42.03 1619,-42.03"/>
<polygon fill="#777777" stroke="#777777" points="1621.1,-42.03 1619,-36.03 1616.9,-42.03 1621.1,-42.03"/>
</g>
</g>
</svg>
